<svg xmlns="http://www.w3.org/2000/svg" width="79.731" height="79.728" viewBox="0 0 79.731 79.728">
  <g id="Group_2320" data-name="Group 2320" transform="translate(-27.931 -57.89)">
    <g id="Group_1296" data-name="Group 1296">
      <path id="Path_670" data-name="Path 670" d="M41.26,107.523l-7.436,2.139a34.582,34.582,0,0,0,50.248,20.554L80.3,123.464A26.853,26.853,0,0,1,41.26,107.523Z" fill="#ccddfc"/>
    </g>
    <g id="Group_1297" data-name="Group 1297">
      <path id="Path_671" data-name="Path 671" d="M65.584,65.271A26.717,26.717,0,0,0,38.867,91.988H65.584Z" fill="#fcc922"/>
    </g>
    <g id="Group_1298" data-name="Group 1298">
      <path id="Path_672" data-name="Path 672" d="M68.844,67.641v28h-28a28,28,0,1,0,28-28Z" fill="#2740a4"/>
    </g>
    <g id="Group_1299" data-name="Group 1299">
      <path id="Path_673" data-name="Path 673" d="M98.449,122.667,68.2,95.553l39.458,10.364-.136.482a40.079,40.079,0,0,1-7.721,14.714c-.335.4-.682.8-1.028,1.186ZM71.9,97.541,98.37,121.273q.343-.387.676-.787a39.1,39.1,0,0,0,7.393-13.872Z" fill="#5f8ede"/>
    </g>
    <g id="Group_1300" data-name="Group 1300">
      <path id="Path_674" data-name="Path 674" d="M50.985,125.731l17.858-30.09-34.522,5.7A35.01,35.01,0,0,0,50.985,125.731Z" fill="#f184df"/>
    </g>
    <g id="Group_1303" data-name="Group 1303">
      <g id="Group_1301" data-name="Group 1301">
        <rect id="Rectangle_161" data-name="Rectangle 161" width="0.985" height="5.125" transform="matrix(0.702, -0.713, 0.713, 0.702, 76.353, 75.326)" fill="#5f8ede"/>
      </g>
      <g id="Group_1302" data-name="Group 1302">
        <rect id="Rectangle_162" data-name="Rectangle 162" width="5.068" height="0.985" transform="translate(76.383 78.21) rotate(-45.081)" fill="#5f8ede"/>
      </g>
    </g>
    <g id="Group_1308" data-name="Group 1308">
      <g id="Group_1305" data-name="Group 1305">
        <g id="Group_1304" data-name="Group 1304">
          <rect id="Rectangle_163" data-name="Rectangle 163" width="0.985" height="5.125" transform="matrix(0.701, -0.713, 0.713, 0.701, 33.295, 81.262)" fill="#f184df"/>
        </g>
      </g>
      <g id="Group_1307" data-name="Group 1307">
        <g id="Group_1306" data-name="Group 1306">
          <rect id="Rectangle_164" data-name="Rectangle 164" width="5.068" height="0.985" transform="translate(33.327 84.153) rotate(-45.081)" fill="#f184df"/>
        </g>
      </g>
    </g>
    <g id="Group_1309" data-name="Group 1309">
      <path id="Path_675" data-name="Path 675" d="M51.055,66.3a2.508,2.508,0,1,1,2.507-2.508A2.511,2.511,0,0,1,51.055,66.3Zm0-4.03a1.522,1.522,0,1,0,1.522,1.522A1.523,1.523,0,0,0,51.055,62.271Z" fill="#5f8ede"/>
    </g>
    <g id="Group_1310" data-name="Group 1310">
      <path id="Path_676" data-name="Path 676" d="M51.055,66.3a2.508,2.508,0,1,1,2.507-2.508A2.511,2.511,0,0,1,51.055,66.3Zm0-4.03a1.522,1.522,0,1,0,1.522,1.522A1.523,1.523,0,0,0,51.055,62.271Z" fill="#5f8ede"/>
    </g>
    <g id="Group_1318" data-name="Group 1318">
      <g id="Group_1311" data-name="Group 1311">
        <rect id="Rectangle_165" data-name="Rectangle 165" width="0.876" height="1.284" transform="translate(100.131 86.486)" fill="#f392e3"/>
      </g>
      <g id="Group_1312" data-name="Group 1312">
        <rect id="Rectangle_166" data-name="Rectangle 166" width="0.876" height="1.285" transform="translate(100.131 88.399)" fill="#f392e3"/>
      </g>
      <g id="Group_1313" data-name="Group 1313">
        <rect id="Rectangle_167" data-name="Rectangle 167" width="0.876" height="1.285" transform="translate(100.131 90.313)" fill="#f392e3"/>
      </g>
      <g id="Group_1314" data-name="Group 1314">
        <rect id="Rectangle_168" data-name="Rectangle 168" width="0.876" height="1.285" transform="translate(100.131 92.226)" fill="#f392e3"/>
      </g>
      <g id="Group_1315" data-name="Group 1315">
        <rect id="Rectangle_169" data-name="Rectangle 169" width="0.876" height="1.284" transform="translate(100.131 94.14)" fill="#f392e3"/>
      </g>
      <g id="Group_1316" data-name="Group 1316">
        <rect id="Rectangle_170" data-name="Rectangle 170" width="0.876" height="1.285" transform="translate(100.131 96.053)" fill="#f392e3"/>
      </g>
      <g id="Group_1317" data-name="Group 1317">
        <rect id="Rectangle_171" data-name="Rectangle 171" width="0.876" height="1.284" transform="translate(100.131 97.966)" fill="#f392e3"/>
      </g>
    </g>
    <g id="Group_1319" data-name="Group 1319">
      <path id="Path_677" data-name="Path 677" d="M93.571,77.788l4.665-4.363C92.173,63.961,80.757,58.087,68.844,57.89v6.115A28.009,28.009,0,0,1,93.571,77.788Z" fill="#ccddfc"/>
    </g>
    <g id="Group_1321" data-name="Group 1321">
      <g id="Group_1320" data-name="Group 1320">
        <rect id="Rectangle_172" data-name="Rectangle 172" width="15.128" height="0.637" transform="translate(88.552 81.345)" fill="#f184df"/>
      </g>
    </g>
    <g id="Group_1323" data-name="Group 1323">
      <g id="Group_1322" data-name="Group 1322">
        <rect id="Rectangle_173" data-name="Rectangle 173" width="8.342" height="0.637" transform="translate(88.826 83.426)" fill="#f184df"/>
      </g>
    </g>
    <g id="Group_1327" data-name="Group 1327">
      <g id="Group_1326" data-name="Group 1326">
        <g id="Group_1325" data-name="Group 1325">
          <g id="Group_1324" data-name="Group 1324">
            <path id="Path_678" data-name="Path 678" d="M27.931,104.042l.328-.292,1.237,1.4a1.016,1.016,0,0,0,1.425.093l1.124-.983a1.453,1.453,0,0,1,2.051.14l.813.934a1.014,1.014,0,0,0,1.44.088l.984-.887a1.453,1.453,0,0,1,2.114.183l.5.635a1.015,1.015,0,0,0,1.537.067l1.2-1.283.32.3-1.2,1.283a1.447,1.447,0,0,1-2.2-.1l-.5-.635a1.013,1.013,0,0,0-1.475-.126l-.986.886a1.449,1.449,0,0,1-2.064-.126l-.813-.932a1.014,1.014,0,0,0-1.43-.1l-1.123.983a1.456,1.456,0,0,1-2.044-.132Z" fill="#ffb502"/>
          </g>
        </g>
      </g>
    </g>
    <g id="Group_1346" data-name="Group 1346">
      <g id="Group_1345" data-name="Group 1345">
        <g id="Group_1331" data-name="Group 1331">
          <g id="Group_1329" data-name="Group 1329">
            <g id="Group_1328" data-name="Group 1328">
              <path id="Path_679" data-name="Path 679" d="M66.509,116.04c-.282,3.886-.046,12.054,1.648,11.837s2.553-.923,1.528-1.069-1.075-.256-1.09-.559c-.1-1.923,1.062-5.7,1.368-8.544C70.323,114.408,66.753,112.641,66.509,116.04Z" fill="#f7b2a0"/>
            </g>
          </g>
          <g id="Group_1330" data-name="Group 1330">
            <path id="Path_680" data-name="Path 680" d="M67.312,127.177s1.572.409,2.374-.369c0,0,1.7-.01.725.587S67.485,128.67,67.312,127.177Z" fill="#e5649a"/>
          </g>
        </g>
        <g id="Group_1335" data-name="Group 1335">
          <g id="Group_1333" data-name="Group 1333">
            <g id="Group_1332" data-name="Group 1332">
              <path id="Path_681" data-name="Path 681" d="M58.531,125.449c-.65,3.845-1.19,12,.516,11.938s2.628-.68,1.627-.922-1.048-.356-1.035-.66c.087-1.922,1.6-5.577,2.176-8.379C62.485,124.179,59.1,122.088,58.531,125.449Z" fill="#f7b2a0"/>
            </g>
          </g>
          <g id="Group_1334" data-name="Group 1334">
            <path id="Path_682" data-name="Path 682" d="M58.273,136.61a2.886,2.886,0,0,0,2.4-.145s1.685.146.662.652S58.3,138.114,58.273,136.61Z" fill="#e5649a"/>
          </g>
        </g>
        <g id="Group_1336" data-name="Group 1336">
          <path id="Path_683" data-name="Path 683" d="M54.911,115.567a16.868,16.868,0,0,0,.953,3.986,30.166,30.166,0,0,1,1.542,4.792c.424,4.618-.19,5.146.5,9.15.1.546,2.288.486,2.479.078,1.95-4.211,1.845-9.021,1.82-11.49a18.663,18.663,0,0,0-.435-4.091c-.034-.189-.068-.39-.112-.606-.13-.7-.294-1.524-.5-2.53,0-.009-.009-.025-.009-.034a14.469,14.469,0,0,0-.944-2.791c-.078-.174-.13-.277-.13-.277l-1.413.319-1.152.27-.321.069-1.759.408A6.915,6.915,0,0,0,54.911,115.567Z" fill="#e32e1b"/>
        </g>
        <g id="Group_1337" data-name="Group 1337">
          <path id="Path_684" data-name="Path 684" d="M60.881,113.809a10.756,10.756,0,0,1,.278,1.048c.269,1.309.6,3.025.744,3.842a4.384,4.384,0,0,1-3.623-.017c-1.778-1.21-1.627-3.631-1.17-5.129Z" fill="#323056"/>
        </g>
        <g id="Group_1338" data-name="Group 1338">
          <path id="Path_685" data-name="Path 685" d="M56.645,115.688a2.548,2.548,0,0,0,1.141,2.129c.8.546,2.481.193,3.876-.43,1.89-.85,3.7-1.9,3.787-.8.286,3.676.772,7.072.772,7.072a4.358,4.358,0,0,0,3.535-.441s2.028-11.154.321-13.667c-1.274-1.881-4.333-.442-6.214.7-.919.572-1.56,1.067-1.56,1.067l-4.671.139a9.2,9.2,0,0,0-.442.952A6.889,6.889,0,0,0,56.645,115.688Z" fill="#f7422e"/>
        </g>
        <g id="Group_1339" data-name="Group 1339">
          <path id="Path_686" data-name="Path 686" d="M55.431,112.82l1.759-.408a9.2,9.2,0,0,1,.442-.952l4.637-.139v1.533l1.955-.141c.092.654-1.227,1.54-3.073,2.108a20.726,20.726,0,0,1-4.506.865,4.864,4.864,0,0,1-1.733-.12A6.894,6.894,0,0,1,55.431,112.82Z" fill="#323056"/>
        </g>
        <g id="Group_1340" data-name="Group 1340">
          <path id="Path_687" data-name="Path 687" d="M60.1,101.955c1.384.827,2.729,3.05,4.107,10.675.3,1.673-9.544,3.175-9.77,1.487-.6-4.492-.038-6.434.809-10.636C55.479,102.339,57.365,100.313,60.1,101.955Z" fill="#ffcf03"/>
        </g>
        <g id="Group_1343" data-name="Group 1343">
          <g id="Group_1341" data-name="Group 1341">
            <path id="Path_688" data-name="Path 688" d="M69.938,95.438s.277-2.541.839-1.863.437,1.021-.123,2.3Z" fill="#f7b2a0"/>
          </g>
          <g id="Group_1342" data-name="Group 1342">
            <path id="Path_689" data-name="Path 689" d="M60.519,103.228c-.346.328-.945,1.56.075,1.885,1.623.519,4.249.38,7.081-2.191,2.634-2.39,2.957-7.189,2.957-7.189a.744.744,0,0,0-.978-.354s-2.926,4.486-4.359,5.494C64.205,101.638,61.706,102.083,60.519,103.228Z" fill="#ffb502"/>
          </g>
        </g>
        <g id="Group_1344" data-name="Group 1344">
          <path id="Path_690" data-name="Path 690" d="M58.486,94.652A2.854,2.854,0,0,1,61.2,97.5c.224,2.08.286,2.116,1.074,2.809,2.02,1.779-2.19,3.072-.468,4.74a6.944,6.944,0,0,1,1.941,2.747,2.1,2.1,0,0,1,.109,1.077,4.147,4.147,0,0,1-.988,1.537,1.85,1.85,0,0,1-1.512.6,9.04,9.04,0,0,1-1.038-.338,1.97,1.97,0,0,0-1.172.051c-.346.125-.461.412-.727.651a2.435,2.435,0,0,1-.927.53,2.479,2.479,0,0,1-1.749-.12,1.463,1.463,0,0,1-.76-.715c-.248-.6.075-1.265-.1-1.881a3.839,3.839,0,0,0-.913-1.718,2.6,2.6,0,0,1-.778-2.146c.084-1.108-1.644-2.148.317-3.748.646-.526-.87-2.845.769-3.5S54.317,94.558,58.486,94.652Z" fill="#323056"/>
        </g>
      </g>
    </g>
  </g>
</svg>
