<svg xmlns="http://www.w3.org/2000/svg" xmlns:xlink="http://www.w3.org/1999/xlink" width="84.684" height="68.048" viewBox="0 0 84.684 68.048">
  <defs>
    <linearGradient id="linear-gradient" x1="0.566" y1="0.648" x2="0.407" y2="0.289" gradientUnits="objectBoundingBox">
      <stop offset="0.059" stop-color="#81a3bf"/>
      <stop offset="0.684" stop-color="#5377b5"/>
      <stop offset="1" stop-color="#4166b1"/>
    </linearGradient>
    <linearGradient id="linear-gradient-2" x1="0.446" y1="0.617" x2="0.581" y2="0.325" gradientUnits="objectBoundingBox">
      <stop offset="0.187" stop-color="#4166b1"/>
      <stop offset="0.941" stop-color="#81a3bf"/>
    </linearGradient>
    <linearGradient id="linear-gradient-3" x1="0.404" y1="0.694" x2="0.565" y2="0.369" xlink:href="#linear-gradient-2"/>
    <linearGradient id="linear-gradient-4" x1="0.625" y1="0.79" x2="0.366" y2="0.195" gradientUnits="objectBoundingBox">
      <stop offset="0.187" stop-color="#3090c7"/>
      <stop offset="0.941" stop-color="#2f3c61"/>
    </linearGradient>
    <linearGradient id="linear-gradient-5" x1="0.386" y1="0.098" x2="0.523" y2="0.581" gradientUnits="objectBoundingBox">
      <stop offset="0.187" stop-color="#418be7"/>
      <stop offset="0.941" stop-color="#90d3f5"/>
    </linearGradient>
  </defs>
  <g id="Group_2579" data-name="Group 2579" transform="translate(-22.562 -31.736)">
    <path id="Path_1526" data-name="Path 1526" d="M105.215,56.56V76.9L92.961,83.976l-1.295.747L75.1,94.288l-.522-.3-6.546,3.778v.6l-2.454,1.417V79.442Z" fill="#2a5275"/>
    <g id="Group_290" data-name="Group 290">
      <path id="Path_1527" data-name="Path 1527" d="M103.667,60.781l1.109-.641V74.751l-1.109.639Z" fill="#31618a"/>
      <path id="Path_1528" data-name="Path 1528" d="M101.013,62.361l1.108-.642V76.33l-1.108.639Z" fill="#31618a"/>
      <path id="Path_1529" data-name="Path 1529" d="M98.358,63.94l1.109-.642V77.91l-1.109.638Z" fill="#31618a"/>
      <path id="Path_1530" data-name="Path 1530" d="M95.7,65.519l1.109-.641V79.489l-1.109.639Z" fill="#31618a"/>
      <path id="Path_1531" data-name="Path 1531" d="M93.048,67.1l1.109-.641V81.068l-1.109.639Z" fill="#31618a"/>
      <path id="Path_1532" data-name="Path 1532" d="M90.394,68.677l1.108-.641V82.647l-1.108.639Z" fill="#31618a"/>
      <path id="Path_1533" data-name="Path 1533" d="M87.739,70.257l1.109-.642V84.226l-1.109.639Z" fill="#31618a"/>
      <path id="Path_1534" data-name="Path 1534" d="M85.084,71.836l1.109-.641V85.806l-1.109.638Z" fill="#31618a"/>
      <path id="Path_1535" data-name="Path 1535" d="M82.429,73.415l1.109-.641V87.385l-1.109.639Z" fill="#31618a"/>
      <path id="Path_1536" data-name="Path 1536" d="M79.775,74.994l1.108-.641V88.964l-1.108.639Z" fill="#31618a"/>
      <path id="Path_1537" data-name="Path 1537" d="M77.12,76.574l1.109-.642V90.543l-1.109.639Z" fill="#31618a"/>
      <path id="Path_1538" data-name="Path 1538" d="M74.465,78.153l1.109-.642V92.122l-1.109.639Z" fill="#31618a"/>
      <path id="Path_1539" data-name="Path 1539" d="M71.81,79.732l1.109-.641V93.7l-1.109.639Z" fill="#31618a"/>
      <path id="Path_1540" data-name="Path 1540" d="M69.156,81.311l1.108-.641V95.281l-1.108.639Z" fill="#31618a"/>
      <path id="Path_1541" data-name="Path 1541" d="M66.5,82.891l1.109-.642V96.86L66.5,97.5Z" fill="#31618a"/>
    </g>
    <path id="Path_1542" data-name="Path 1542" d="M105.215,73.76V76.9L92.961,83.976l-1.295.747L74.049,94.9l-.522-.3L69.085,97.16v.6l-3.5,2.021V96.643l25.776-14.88v3.128l1.292-.747V81.016Z" fill="#998385"/>
    <path id="Path_1543" data-name="Path 1543" d="M24.593,55.792,64.228,32.909,105.214,56.56,65.579,79.443Z" fill="#d1c9ca"/>
    <path id="Path_1544" data-name="Path 1544" d="M64.228,36.3l36.823,21.248,1.708-.987L64.228,34.326,27.654,55.408l2.752.384Z" fill="#7e898d"/>
    <path id="Path_1545" data-name="Path 1545" d="M64.228,34.326V36.3L30.406,55.792l-2.752-.384Z" fill="#545354"/>
    <path id="Path_1546" data-name="Path 1546" d="M92.647,81.016v3.128l-1.292.747V81.763Z" fill="#998385"/>
    <path id="Path_1547" data-name="Path 1547" d="M74.049,86.068v8.264L69.084,97.2V88.934l1.369-.79,1.86-1.073Z" fill="#cf1f30"/>
    <path id="Path_1548" data-name="Path 1548" d="M73.54,87.526l.143,7.022-.638.382V87.739Z" fill="#002d54"/>
    <path id="Path_1549" data-name="Path 1549" d="M69.537,89.795l-.015,7.12-.438.283V90.007Z" fill="#002d54"/>
    <path id="Path_1550" data-name="Path 1550" d="M74.049,86.068v1.663L69.084,90.6V88.934Z"/>
    <path id="Path_1551" data-name="Path 1551" d="M69.318,89.069l3.966-2.3v1.124l-3.966,2.3Z" fill="url(#linear-gradient)"/>
    <path id="Path_1552" data-name="Path 1552" d="M73.045,91.452l-.764.452v1.368l.764-.451Z" fill="#d3c9ca"/>
    <g id="Group_291" data-name="Group 291">
      <rect id="Rectangle_27" data-name="Rectangle 27" width="0.398" height="6.629" transform="translate(69.323 90.286)"/>
    </g>
    <g id="Group_292" data-name="Group 292">
      <rect id="Rectangle_28" data-name="Rectangle 28" width="0.398" height="6.629" transform="translate(72.846 88.301)"/>
    </g>
    <path id="Path_1553" data-name="Path 1553" d="M74.049,86.067V94.9l-.509-.3V86.361Z" fill="#14375e"/>
    <g id="Group_293" data-name="Group 293">
      <path id="Path_1554" data-name="Path 1554" d="M65.579,81.565v1.906l.481.272,39.625-24.749-.48-.272Z" fill="#bcaeaf"/>
      <path id="Path_1555" data-name="Path 1555" d="M65.585,83.065v1.9L105.21,62.126v-1.9Z" fill="#a3b5c9"/>
      <path id="Path_1556" data-name="Path 1556" d="M66.06,81.838v1.9L105.685,60.9V58.994Z" fill="#998385"/>
    </g>
    <path id="Path_1557" data-name="Path 1557" d="M32.4,56.014,65.614,37.1l-1.386-.8L30.406,55.792Z" fill="#8f8f8f"/>
    <path id="Path_1558" data-name="Path 1558" d="M65.579,99.784l-2.365-1.365v-.561L29.636,78.489l14.081,8.674L24.593,76.133V55.792l20.225,3.431,20.761,20.22Z" fill="#6485ac"/>
    <g id="Group_294" data-name="Group 294">
      <path id="Path_1559" data-name="Path 1559" d="M26.676,74.846V57.035l-1.109-.642V74.208Z" fill="#7da6d6"/>
      <path id="Path_1560" data-name="Path 1560" d="M29.034,58.411l-1.109-.642v17.8l1.109.639Z" fill="#7da6d6"/>
      <path id="Path_1561" data-name="Path 1561" d="M31.391,59.787l-1.109-.641V76.931l1.109.639Z" fill="#7da6d6"/>
      <path id="Path_1562" data-name="Path 1562" d="M33.749,61.163l-1.109-.641V78.293l1.109.639Z" fill="#7da6d6"/>
      <path id="Path_1563" data-name="Path 1563" d="M36.106,62.54,35,61.9V79.655l1.109.639Z" fill="#7da6d6"/>
      <path id="Path_1564" data-name="Path 1564" d="M38.464,63.916l-1.109-.642V81.017l1.109.638Z" fill="#7da6d6"/>
      <path id="Path_1565" data-name="Path 1565" d="M40.821,65.292l-1.108-.641V82.378l1.108.639Z" fill="#7da6d6"/>
      <path id="Path_1566" data-name="Path 1566" d="M43.179,66.668l-1.109-.641V83.74l1.109.639Z" fill="#7da6d6"/>
      <path id="Path_1567" data-name="Path 1567" d="M45.536,68.045,44.428,67.4V85.1l1.108.639Z" fill="#7da6d6"/>
      <path id="Path_1568" data-name="Path 1568" d="M47.894,69.421l-1.109-.642V86.464l1.109.639Z" fill="#7da6d6"/>
      <path id="Path_1569" data-name="Path 1569" d="M50.251,70.8l-1.108-.641V87.825l1.108.639Z" fill="#7da6d6"/>
      <path id="Path_1570" data-name="Path 1570" d="M52.609,72.173,51.5,71.532V89.187l1.109.639Z" fill="#7da6d6"/>
      <path id="Path_1571" data-name="Path 1571" d="M54.967,73.549l-1.109-.641V90.549l1.109.639Z" fill="#7da6d6"/>
      <path id="Path_1572" data-name="Path 1572" d="M57.324,74.926l-1.109-.642V91.911l1.109.639Z" fill="#7da6d6"/>
      <path id="Path_1573" data-name="Path 1573" d="M59.682,76.3l-1.109-.641V93.273l1.109.638Z" fill="#7da6d6"/>
      <path id="Path_1574" data-name="Path 1574" d="M62.039,77.678l-1.108-.641v17.6l1.108.639Z" fill="#7da6d6"/>
      <path id="Path_1575" data-name="Path 1575" d="M64.4,79.054l-1.109-.641V96l1.109.639Z" fill="#7da6d6"/>
    </g>
    <path id="Path_1576" data-name="Path 1576" d="M63.214,95.278h0L38.971,81.289l-14.378-8.3h0v3.141L63.214,98.418h0l2.365,1.366V96.643Z" fill="#d3c9ca"/>
    <g id="Group_306" data-name="Group 306">
      <path id="Path_1577" data-name="Path 1577" d="M29.1,63.715V78.734l13.852,7.995,14.825,8.558V80.264L44.488,72.6l-1.535-.885-1.53-.885L29.87,64.157Z" fill="#746872"/>
      <path id="Path_1578" data-name="Path 1578" d="M42.953,71.71V86.729l1.535-.885V72.6Z" fill="#14375e"/>
      <path id="Path_1579" data-name="Path 1579" d="M29.1,63.715V78.734l1.534-.885V64.6Z" fill="#14375e"/>
      <path id="Path_1580" data-name="Path 1580" d="M29.87,64.157V78.184l11.553,6.668V70.825Z" fill="#ebe7e7"/>
      <g id="Group_295" data-name="Group 295">
        <rect id="Rectangle_29" data-name="Rectangle 29" width="0.199" height="13.339" transform="translate(29.821 64.645) rotate(-60.007)" fill="#73757d"/>
      </g>
      <g id="Group_296" data-name="Group 296">
        <rect id="Rectangle_30" data-name="Rectangle 30" width="0.199" height="13.339" transform="translate(29.822 66.081) rotate(-60.007)" fill="#73757d"/>
      </g>
      <g id="Group_297" data-name="Group 297">
        <rect id="Rectangle_31" data-name="Rectangle 31" width="0.199" height="13.339" transform="translate(29.822 67.521) rotate(-60.007)" fill="#73757d"/>
      </g>
      <g id="Group_298" data-name="Group 298">
        <rect id="Rectangle_32" data-name="Rectangle 32" width="0.199" height="13.339" transform="translate(29.822 68.96) rotate(-60.007)" fill="#73757d"/>
      </g>
      <g id="Group_299" data-name="Group 299">
        <rect id="Rectangle_33" data-name="Rectangle 33" width="0.199" height="13.339" transform="translate(29.821 70.394) rotate(-60.007)" fill="#73757d"/>
      </g>
      <g id="Group_300" data-name="Group 300">
        <rect id="Rectangle_34" data-name="Rectangle 34" width="0.199" height="13.339" transform="translate(29.821 71.833) rotate(-60.007)" fill="#73757d"/>
      </g>
      <g id="Group_301" data-name="Group 301">
        <rect id="Rectangle_35" data-name="Rectangle 35" width="0.199" height="13.339" transform="translate(29.821 73.273) rotate(-60.007)" fill="#73757d"/>
      </g>
      <g id="Group_302" data-name="Group 302">
        <rect id="Rectangle_36" data-name="Rectangle 36" width="0.199" height="13.339" transform="translate(29.821 74.711) rotate(-60.007)" fill="#73757d"/>
      </g>
      <g id="Group_303" data-name="Group 303">
        <rect id="Rectangle_37" data-name="Rectangle 37" width="0.199" height="13.339" transform="translate(29.822 76.146) rotate(-60.007)" fill="#73757d"/>
      </g>
      <path id="Path_1581" data-name="Path 1581" d="M41.423,81.747,29.87,75.08v1.372L41.423,83.12Z" fill="#cf1f30"/>
      <path id="Path_1582" data-name="Path 1582" d="M29.87,76.452v1.732l11.553,6.668V83.12Z" fill="#38363a"/>
      <path id="Path_1583" data-name="Path 1583" d="M40.381,72.347l-4.736-2.734v2.18l4.736,2.734Z" fill="#696969"/>
      <path id="Path_1584" data-name="Path 1584" d="M35.817,71.564V70.041l4.391,2.535V74.1Z" fill="url(#linear-gradient-2)"/>
      <path id="Path_1585" data-name="Path 1585" d="M30.83,66.834v2.184l4.037,2.328V69.162Z" fill="#696969"/>
      <path id="Path_1586" data-name="Path 1586" d="M31.017,68.8V67.265l3.663,2.113v1.537Z" fill="url(#linear-gradient-3)"/>
      <path id="Path_1587" data-name="Path 1587" d="M35.945,71.512v-1.4l-.128-.074v1.523L40.208,74.1v-.126Z" fill="#b1b1b1"/>
      <path id="Path_1588" data-name="Path 1588" d="M31.145,68.751V67.339l-.128-.074V68.8l3.663,2.113v-.126Z" fill="#b1b1b1"/>
      <path id="Path_1589" data-name="Path 1589" d="M57.778,85.819,54.9,87.478l2.875,7.809Z" fill="#41313e"/>
      <path id="Path_1590" data-name="Path 1590" d="M44.488,72.6V81.29l5.94,3.185,7.321-4.227L51.76,76.79,50.225,75.9l-1.53-.881Z" fill="#41313e"/>
      <path id="Path_1591" data-name="Path 1591" d="M50.428,84.475l4.2,2.254.277.749,2.875-1.659V80.264l-.029-.016Z" fill="#41313e"/>
      <g id="Group_304" data-name="Group 304">
        <path id="Path_1592" data-name="Path 1592" d="M48.7,77.407v3.706l1.53.885V78.292Z" fill="#998385"/>
        <path id="Path_1593" data-name="Path 1593" d="M48.695,75.024v2.382l1.53.885V75.9Z" fill="#14375e"/>
        <path id="Path_1594" data-name="Path 1594" d="M50.225,75.9V82l1.535-.885V76.79Z" fill="#2a5275"/>
      </g>
      <g id="Group_305" data-name="Group 305">
        <path id="Path_1595" data-name="Path 1595" d="M58.728,79.558l-2.573,1.379L27.293,64.271v-.607L58.728,78.951Z" fill="#d3c9ca"/>
        <path id="Path_1596" data-name="Path 1596" d="M29.866,62.285l-2.573,1.379L56.155,80.33l2.573-1.379Z" fill="#b1b1b1"/>
      </g>
    </g>
    <path id="Path_1597" data-name="Path 1597" d="M22.562,55.773,65.613,80.616,43.806,59.376Z" fill="#cf1f30"/>
    <g id="Group_327" data-name="Group 327">
      <g id="Group_307" data-name="Group 307">
        <path id="Path_1598" data-name="Path 1598" d="M36.285,59.341l.427.246.35,1.408.314-1.025.412.238.311,1.386.352-1,.428.247-.618,1.739-.293-.17-.388-1.68L37.2,61.962l-.293-.17Z" fill="#c06262"/>
        <path id="Path_1599" data-name="Path 1599" d="M38.763,62.868l.763-1.656.384.221.763,2.536-.42-.243-.164-.547-.741-.427-.165.357Zm.734-.441.443.256-.221-.736Z" fill="#c06262"/>
        <path id="Path_1600" data-name="Path 1600" d="M40.877,64.087v-2.1l.671.387a1.71,1.71,0,0,1,.588.505,1.122,1.122,0,0,1,.176.634q0,.5-.336.455l.448,1.006-.486-.281-.391-.893-.273-.158v.667Zm.4-.844.288.167q.2.117.276.081c.049-.024.074-.091.074-.2a.468.468,0,0,0-.076-.275.839.839,0,0,0-.266-.216l-.295-.17v.616Z" fill="#c06262"/>
        <path id="Path_1601" data-name="Path 1601" d="M42.716,65.149v-2.1l1.274.736v.417l-.88-.508v.432l.792.457v.395l-.792-.457v.441l.908.524V65.9Z" fill="#c06262"/>
        <path id="Path_1602" data-name="Path 1602" d="M44.37,66.1v-2.1l.4.228v.875l.7.4v-.875l.4.228v2.1l-.4-.228v-.825l-.7-.406v.825Z" fill="#c06262"/>
        <path id="Path_1603" data-name="Path 1603" d="M46.466,67.024a1.833,1.833,0,0,1-.27-.927.65.65,0,0,1,.27-.617.643.643,0,0,1,.661.072,2.019,2.019,0,0,1,.928,1.616.649.649,0,0,1-.269.617.641.641,0,0,1-.659-.071A1.82,1.82,0,0,1,46.466,67.024Zm.29-1.081a.456.456,0,0,0-.152.392,1.193,1.193,0,0,0,.152.565,1.007,1.007,0,0,0,.373.412.325.325,0,0,0,.372.019.449.449,0,0,0,.152-.39,1.206,1.206,0,0,0-.152-.567,1,1,0,0,0-.372-.414A.32.32,0,0,0,46.756,65.943Z" fill="#c06262"/>
        <path id="Path_1604" data-name="Path 1604" d="M48.362,67.485V66.313l.4.228V67.7a1.019,1.019,0,0,0,.1.454.67.67,0,0,0,.265.3c.111.065.2.066.264.007a.458.458,0,0,0,.1-.341V66.959l.4.228v1.172c0,.3-.071.5-.213.576a.536.536,0,0,1-.544-.07,1.49,1.49,0,0,1-.545-.56A1.608,1.608,0,0,1,48.362,67.485Z" fill="#c06262"/>
        <path id="Path_1605" data-name="Path 1605" d="M50.162,69.1,50.4,68.9a1.754,1.754,0,0,0,.528.6.224.224,0,0,0,.171.043q.063-.02.063-.114a.323.323,0,0,0-.066-.188,1.773,1.773,0,0,0-.262-.264,2.346,2.346,0,0,1-.452-.487.941.941,0,0,1-.143-.52c0-.2.061-.317.181-.355a.572.572,0,0,1,.451.1,1.78,1.78,0,0,1,.355.277,2.149,2.149,0,0,1,.31.383l-.2.227a1.552,1.552,0,0,0-.476-.483.188.188,0,0,0-.156-.034c-.039.015-.057.053-.057.114a.311.311,0,0,0,.07.186,2.555,2.555,0,0,0,.322.313,1.948,1.948,0,0,1,.391.446.954.954,0,0,1,.139.509c0,.188-.059.305-.179.353a.559.559,0,0,1-.471-.1A2.222,2.222,0,0,1,50.162,69.1Z" fill="#c06262"/>
        <path id="Path_1606" data-name="Path 1606" d="M51.9,70.45v-2.1l1.275.736v.417L52.3,69v.432l.792.457v.395l-.792-.457v.441l.908.524V71.2Z" fill="#c06262"/>
      </g>
      <g id="Group_308" data-name="Group 308">
        <path id="Path_1607" data-name="Path 1607" d="M36.24,59.364l.427.247.35,1.408.314-1.026.412.238.311,1.386.352-1,.427.247L38.216,62.6l-.294-.169-.387-1.68-.384,1.234-.294-.169Z" fill="#c16767"/>
        <path id="Path_1608" data-name="Path 1608" d="M39.452,62.45l.443.256-.221-.736Zm-.734.44.763-1.655.384.221.763,2.536-.42-.243-.164-.547-.741-.427-.165.357Z" fill="#c16767"/>
        <path id="Path_1609" data-name="Path 1609" d="M41.227,63.266l.288.167c.136.078.227.1.276.081s.074-.091.074-.2a.468.468,0,0,0-.076-.275.839.839,0,0,0-.266-.216l-.295-.171v.617Zm-.4.844v-2.1l.671.387a1.71,1.71,0,0,1,.588.505,1.122,1.122,0,0,1,.176.634q0,.5-.336.455L42.379,65l-.486-.281-.392-.893-.273-.158v.667Z" fill="#c16767"/>
        <path id="Path_1610" data-name="Path 1610" d="M42.672,65.172v-2.1l1.274.736v.417l-.879-.508v.432l.792.457V65l-.792-.457v.441l.908.524v.411Z" fill="#c16767"/>
        <path id="Path_1611" data-name="Path 1611" d="M44.326,66.127v-2.1l.4.228v.875l.7.406v-.875l.4.228v2.1l-.4-.228v-.825l-.7-.406v.826Z" fill="#c16767"/>
        <path id="Path_1612" data-name="Path 1612" d="M46.712,65.965a.456.456,0,0,0-.152.392,1.193,1.193,0,0,0,.152.565,1.007,1.007,0,0,0,.373.412.325.325,0,0,0,.372.019.449.449,0,0,0,.152-.39,1.206,1.206,0,0,0-.152-.567,1,1,0,0,0-.372-.414A.323.323,0,0,0,46.712,65.965Zm-.29,1.082a1.833,1.833,0,0,1-.27-.927.565.565,0,0,1,.931-.544,2.019,2.019,0,0,1,.928,1.616.649.649,0,0,1-.269.617.641.641,0,0,1-.659-.071A1.822,1.822,0,0,1,46.422,67.047Z" fill="#c16767"/>
        <path id="Path_1613" data-name="Path 1613" d="M48.318,67.507V66.335l.4.228V67.72a1.019,1.019,0,0,0,.1.454.664.664,0,0,0,.265.3c.111.065.2.067.264.007a.457.457,0,0,0,.1-.341V66.981l.4.228v1.172c0,.3-.071.5-.213.576a.536.536,0,0,1-.544-.07,1.49,1.49,0,0,1-.545-.56A1.593,1.593,0,0,1,48.318,67.507Z" fill="#c16767"/>
        <path id="Path_1614" data-name="Path 1614" d="M50.117,69.125l.234-.205a1.745,1.745,0,0,0,.529.6.229.229,0,0,0,.171.043q.063-.02.063-.114a.323.323,0,0,0-.066-.188A1.682,1.682,0,0,0,50.786,69a2.346,2.346,0,0,1-.452-.487.943.943,0,0,1-.143-.52c0-.2.061-.317.181-.355a.573.573,0,0,1,.451.1,1.78,1.78,0,0,1,.355.277,2.194,2.194,0,0,1,.31.383l-.2.227a1.537,1.537,0,0,0-.476-.482.188.188,0,0,0-.156-.034q-.057.022-.057.114a.311.311,0,0,0,.07.186,2.6,2.6,0,0,0,.321.313,1.948,1.948,0,0,1,.391.446.954.954,0,0,1,.139.509c0,.188-.059.305-.179.353a.556.556,0,0,1-.47-.1A2.26,2.26,0,0,1,50.117,69.125Z" fill="#c16767"/>
        <path id="Path_1615" data-name="Path 1615" d="M51.857,70.473v-2.1l1.275.736v.417l-.88-.508v.431l.792.458v.395l-.792-.457v.44l.908.524v.412Z" fill="#c16767"/>
      </g>
      <g id="Group_309" data-name="Group 309">
        <path id="Path_1616" data-name="Path 1616" d="M36.195,59.387l.428.246.349,1.408.314-1.025.412.238.311,1.386.352-1,.428.247-.618,1.739-.293-.17-.388-1.679-.384,1.234-.293-.17Z" fill="#c26d6d"/>
        <path id="Path_1617" data-name="Path 1617" d="M39.408,62.473l.443.256-.221-.736Zm-.734.44.763-1.655.384.221.763,2.536-.42-.243L40,63.225l-.741-.427-.165.357Z" fill="#c26d6d"/>
        <path id="Path_1618" data-name="Path 1618" d="M41.183,63.288l.288.167q.2.117.276.081c.049-.024.074-.091.074-.2a.468.468,0,0,0-.076-.275.839.839,0,0,0-.266-.216l-.295-.17v.617Zm-.4.845v-2.1l.671.387a1.71,1.71,0,0,1,.588.505,1.122,1.122,0,0,1,.176.634q0,.5-.336.455l.447,1.006-.486-.281-.391-.893-.273-.158v.667Z" fill="#c26d6d"/>
        <path id="Path_1619" data-name="Path 1619" d="M42.627,65.195V63.1l1.275.736v.417l-.88-.508v.432l.792.457v.395l-.792-.457v.44l.908.524v.411Z" fill="#c26d6d"/>
        <path id="Path_1620" data-name="Path 1620" d="M44.281,66.149v-2.1l.4.228v.875l.7.406v-.875l.4.228v2.1l-.4-.228v-.825l-.7-.406v.826Z" fill="#c26d6d"/>
        <path id="Path_1621" data-name="Path 1621" d="M46.667,65.988a.456.456,0,0,0-.152.392,1.19,1.19,0,0,0,.152.565,1.007,1.007,0,0,0,.373.412.325.325,0,0,0,.372.019.449.449,0,0,0,.152-.39,1.206,1.206,0,0,0-.152-.567A1,1,0,0,0,47.04,66,.323.323,0,0,0,46.667,65.988Zm-.29,1.082a1.833,1.833,0,0,1-.27-.927.565.565,0,0,1,.931-.544,2.019,2.019,0,0,1,.928,1.616.649.649,0,0,1-.269.617.641.641,0,0,1-.659-.071A1.83,1.83,0,0,1,46.377,67.07Z" fill="#c26d6d"/>
        <path id="Path_1622" data-name="Path 1622" d="M48.273,67.53V66.358l.4.228v1.157a1.019,1.019,0,0,0,.1.454.664.664,0,0,0,.265.3c.111.065.2.067.264.007a.457.457,0,0,0,.1-.341V67l.4.228V68.4q0,.456-.213.576a.536.536,0,0,1-.544-.07,1.49,1.49,0,0,1-.545-.56A1.608,1.608,0,0,1,48.273,67.53Z" fill="#c26d6d"/>
        <path id="Path_1623" data-name="Path 1623" d="M50.073,69.148l.234-.205a1.754,1.754,0,0,0,.528.6.229.229,0,0,0,.171.043q.063-.02.063-.114A.323.323,0,0,0,51,69.286a1.773,1.773,0,0,0-.262-.264,2.346,2.346,0,0,1-.452-.487.943.943,0,0,1-.143-.52c0-.2.061-.317.181-.355a.572.572,0,0,1,.451.1,1.78,1.78,0,0,1,.355.277,2.194,2.194,0,0,1,.31.383l-.2.227a1.537,1.537,0,0,0-.476-.482.188.188,0,0,0-.156-.034c-.039.015-.057.053-.057.114a.316.316,0,0,0,.07.187,2.6,2.6,0,0,0,.321.313,1.948,1.948,0,0,1,.391.446.951.951,0,0,1,.139.509c0,.188-.059.305-.179.352a.559.559,0,0,1-.471-.1A2.24,2.24,0,0,1,50.073,69.148Z" fill="#c26d6d"/>
        <path id="Path_1624" data-name="Path 1624" d="M51.812,70.5V68.4l1.275.736v.417l-.88-.507v.431l.793.458v.394l-.793-.457v.441l.909.524v.411Z" fill="#c26d6d"/>
      </g>
      <g id="Group_310" data-name="Group 310">
        <path id="Path_1625" data-name="Path 1625" d="M36.151,59.41l.427.246.35,1.408.314-1.025.411.238.312,1.386.352-1,.427.246-.617,1.74-.294-.17-.388-1.68-.384,1.235-.293-.17Z" fill="#c27272"/>
        <path id="Path_1626" data-name="Path 1626" d="M39.363,62.495l.443.256-.221-.736Zm-.734.441.763-1.656.384.221.763,2.536-.42-.243-.164-.547-.741-.427-.165.357Z" fill="#c27272"/>
        <path id="Path_1627" data-name="Path 1627" d="M41.138,63.311l.288.167q.2.117.276.081c.049-.024.074-.091.074-.2a.468.468,0,0,0-.076-.275.839.839,0,0,0-.266-.216l-.295-.17v.617Zm-.4.845v-2.1l.671.387a1.71,1.71,0,0,1,.588.505,1.12,1.12,0,0,1,.176.634q0,.5-.336.455l.448,1.006-.486-.281-.392-.893-.273-.158v.667Z" fill="#c27272"/>
        <path id="Path_1628" data-name="Path 1628" d="M42.583,65.217v-2.1l1.274.735v.418l-.879-.508V64.2l.792.458v.4l-.792-.458v.441l.907.524v.411Z" fill="#c27272"/>
        <path id="Path_1629" data-name="Path 1629" d="M44.236,66.172V64.077l.4.228v.875l.7.4v-.874l.4.228v2.095l-.4-.228v-.825l-.7-.406V66.4Z" fill="#c27272"/>
        <path id="Path_1630" data-name="Path 1630" d="M46.622,66.011a.456.456,0,0,0-.152.392,1.179,1.179,0,0,0,.152.565A1.007,1.007,0,0,0,47,67.38a.325.325,0,0,0,.372.019.449.449,0,0,0,.152-.39,1.206,1.206,0,0,0-.152-.567A1,1,0,0,0,47,66.028.321.321,0,0,0,46.622,66.011Zm-.289,1.081a1.833,1.833,0,0,1-.27-.927.565.565,0,0,1,.931-.544,2.019,2.019,0,0,1,.928,1.616.649.649,0,0,1-.269.617.641.641,0,0,1-.659-.071A1.815,1.815,0,0,1,46.333,67.092Z" fill="#c27272"/>
        <path id="Path_1631" data-name="Path 1631" d="M48.229,67.553V66.381l.4.228v1.157a1.019,1.019,0,0,0,.1.454.664.664,0,0,0,.265.3c.111.065.2.067.264.007a.457.457,0,0,0,.1-.341V67.027l.4.229v1.172q0,.456-.213.576a.536.536,0,0,1-.544-.07,1.49,1.49,0,0,1-.545-.56A1.6,1.6,0,0,1,48.229,67.553Z" fill="#c27272"/>
        <path id="Path_1632" data-name="Path 1632" d="M50.028,69.17l.234-.205a1.754,1.754,0,0,0,.528.6.229.229,0,0,0,.171.043q.063-.02.063-.114a.323.323,0,0,0-.066-.188,1.773,1.773,0,0,0-.262-.264,2.346,2.346,0,0,1-.452-.487.941.941,0,0,1-.143-.52c0-.2.061-.317.181-.355a.572.572,0,0,1,.451.1,1.78,1.78,0,0,1,.355.277,2.149,2.149,0,0,1,.31.383l-.2.226a1.552,1.552,0,0,0-.476-.483.188.188,0,0,0-.156-.034q-.057.022-.057.114a.311.311,0,0,0,.07.186,2.6,2.6,0,0,0,.321.313,1.948,1.948,0,0,1,.391.446.954.954,0,0,1,.139.509c0,.187-.059.305-.179.353a.56.56,0,0,1-.47-.1A2.2,2.2,0,0,1,50.028,69.17Z" fill="#c27272"/>
        <path id="Path_1633" data-name="Path 1633" d="M51.768,70.518v-2.1l1.274.736v.417l-.879-.508V69.5l.792.457v.395l-.792-.457v.441l.908.524v.411Z" fill="#c27272"/>
      </g>
      <g id="Group_311" data-name="Group 311">
        <path id="Path_1634" data-name="Path 1634" d="M36.106,59.432l.428.247.349,1.408.314-1.025.412.237.311,1.386.352-1,.428.247-.618,1.739-.293-.169-.388-1.68-.384,1.234-.293-.169Z" fill="#c37878"/>
        <path id="Path_1635" data-name="Path 1635" d="M39.318,62.518l.443.256-.221-.736Zm-.733.441.763-1.655.384.222.763,2.536-.42-.243-.164-.547-.741-.427L39,63.2Z" fill="#c37878"/>
        <path id="Path_1636" data-name="Path 1636" d="M41.094,63.334l.288.167q.2.117.276.081c.049-.024.074-.091.074-.2a.468.468,0,0,0-.076-.275.839.839,0,0,0-.266-.216l-.295-.17v.616Zm-.4.844v-2.1l.671.387a1.71,1.71,0,0,1,.588.505,1.12,1.12,0,0,1,.176.634c0,.336-.113.487-.336.455l.447,1.006-.486-.281-.391-.893-.273-.158V64.4Z" fill="#c37878"/>
        <path id="Path_1637" data-name="Path 1637" d="M42.538,65.24v-2.1l1.274.736V64.3l-.879-.507v.431l.792.457v.395l-.792-.457v.441l.908.524v.411Z" fill="#c37878"/>
        <path id="Path_1638" data-name="Path 1638" d="M44.192,66.195V64.1l.4.228V65.2l.7.4v-.875l.4.228v2.1l-.4-.229V66l-.7-.406v.825Z" fill="#c37878"/>
        <path id="Path_1639" data-name="Path 1639" d="M46.578,66.033a.456.456,0,0,0-.152.392,1.19,1.19,0,0,0,.152.565,1.007,1.007,0,0,0,.373.412.325.325,0,0,0,.372.019.449.449,0,0,0,.152-.39,1.206,1.206,0,0,0-.152-.567,1,1,0,0,0-.372-.414A.323.323,0,0,0,46.578,66.033Zm-.29,1.082a1.833,1.833,0,0,1-.27-.927.565.565,0,0,1,.931-.544,2.019,2.019,0,0,1,.928,1.616.649.649,0,0,1-.269.617.641.641,0,0,1-.659-.071A1.823,1.823,0,0,1,46.288,67.115Z" fill="#c37878"/>
        <path id="Path_1640" data-name="Path 1640" d="M48.184,67.576V66.4l.4.228v1.157a1.019,1.019,0,0,0,.1.454.664.664,0,0,0,.265.3c.111.065.2.067.264.007a.457.457,0,0,0,.1-.341V67.05l.4.229v1.172q0,.456-.213.576a.536.536,0,0,1-.544-.07,1.49,1.49,0,0,1-.545-.56A1.614,1.614,0,0,1,48.184,67.576Z" fill="#c37878"/>
        <path id="Path_1641" data-name="Path 1641" d="M49.983,69.193l.234-.205a1.754,1.754,0,0,0,.528.6.229.229,0,0,0,.171.043q.063-.02.063-.114a.323.323,0,0,0-.066-.188,1.754,1.754,0,0,0-.261-.264,2.346,2.346,0,0,1-.452-.487.941.941,0,0,1-.143-.52c0-.2.061-.317.181-.355a.576.576,0,0,1,.451.1,1.78,1.78,0,0,1,.355.277,2.194,2.194,0,0,1,.31.383l-.2.227a1.552,1.552,0,0,0-.476-.483.188.188,0,0,0-.156-.034q-.057.022-.057.114a.311.311,0,0,0,.07.186,2.6,2.6,0,0,0,.321.313,1.948,1.948,0,0,1,.391.446.951.951,0,0,1,.139.509c0,.188-.059.305-.179.353a.559.559,0,0,1-.471-.1A2.23,2.23,0,0,1,49.983,69.193Z" fill="#c37878"/>
        <path id="Path_1642" data-name="Path 1642" d="M51.723,70.541v-2.1L53,69.182V69.6l-.88-.508v.432l.792.457v.395l-.792-.457v.44l.908.524v.412Z" fill="#c37878"/>
      </g>
      <g id="Group_312" data-name="Group 312">
        <path id="Path_1643" data-name="Path 1643" d="M36.062,59.455l.427.246.35,1.409.313-1.026.412.238.311,1.386.352-1,.428.247-.618,1.739-.293-.17-.388-1.679-.384,1.234-.293-.169Z" fill="#c47d7d"/>
        <path id="Path_1644" data-name="Path 1644" d="M39.274,62.541l.443.256-.221-.736Zm-.734.44.763-1.655.384.221.763,2.536-.42-.243-.164-.547-.741-.427-.165.357Z" fill="#c47d7d"/>
        <path id="Path_1645" data-name="Path 1645" d="M41.049,63.356l.288.167q.2.117.276.081c.049-.024.074-.091.074-.2a.468.468,0,0,0-.076-.275.839.839,0,0,0-.266-.216l-.295-.17v.616Zm-.4.845v-2.1l.671.387a1.71,1.71,0,0,1,.588.505,1.12,1.12,0,0,1,.176.634q0,.5-.336.455l.448,1.006-.486-.281-.392-.893-.273-.158v.667Z" fill="#c47d7d"/>
        <path id="Path_1646" data-name="Path 1646" d="M42.493,65.263v-2.1l1.275.736v.417l-.88-.508v.432l.792.457v.4l-.792-.457v.44l.908.525v.411Z" fill="#c47d7d"/>
        <path id="Path_1647" data-name="Path 1647" d="M44.147,66.218v-2.1l.4.228v.875l.7.406v-.875l.4.228v2.1l-.4-.228v-.825l-.7-.406v.826Z" fill="#c47d7d"/>
        <path id="Path_1648" data-name="Path 1648" d="M46.533,66.056a.456.456,0,0,0-.152.392,1.19,1.19,0,0,0,.152.565,1.007,1.007,0,0,0,.373.412.325.325,0,0,0,.372.019.449.449,0,0,0,.152-.39,1.206,1.206,0,0,0-.152-.567,1,1,0,0,0-.372-.414A.323.323,0,0,0,46.533,66.056Zm-.29,1.082a1.833,1.833,0,0,1-.27-.927.565.565,0,0,1,.931-.544,2.014,2.014,0,0,1,.927,1.616.651.651,0,0,1-.268.617.641.641,0,0,1-.659-.071A1.837,1.837,0,0,1,46.243,67.138Z" fill="#c47d7d"/>
        <path id="Path_1649" data-name="Path 1649" d="M48.139,67.6V66.426l.4.228v1.157a1.019,1.019,0,0,0,.1.454.67.67,0,0,0,.265.3c.111.065.2.067.264.007a.457.457,0,0,0,.1-.341V67.072l.4.229v1.172q0,.456-.213.576a.536.536,0,0,1-.544-.07,1.49,1.49,0,0,1-.545-.56A1.609,1.609,0,0,1,48.139,67.6Z" fill="#c47d7d"/>
        <path id="Path_1650" data-name="Path 1650" d="M49.939,69.216l.234-.205a1.754,1.754,0,0,0,.528.6.229.229,0,0,0,.171.043q.063-.02.063-.114a.323.323,0,0,0-.066-.188,1.773,1.773,0,0,0-.262-.264,2.346,2.346,0,0,1-.452-.487.941.941,0,0,1-.143-.52c0-.2.061-.317.181-.355a.573.573,0,0,1,.451.1A1.78,1.78,0,0,1,51,68.1a2.194,2.194,0,0,1,.31.383l-.2.226a1.552,1.552,0,0,0-.476-.483.188.188,0,0,0-.156-.034q-.057.022-.057.114a.311.311,0,0,0,.07.186,2.6,2.6,0,0,0,.321.313,1.948,1.948,0,0,1,.391.446.951.951,0,0,1,.139.509c0,.188-.059.305-.179.353a.562.562,0,0,1-.471-.1A2.237,2.237,0,0,1,49.939,69.216Z" fill="#c47d7d"/>
        <path id="Path_1651" data-name="Path 1651" d="M51.678,70.564v-2.1l1.275.735v.418l-.88-.508v.431l.793.458v.4l-.793-.458v.441l.909.524v.411Z" fill="#c47d7d"/>
      </g>
      <g id="Group_313" data-name="Group 313">
        <path id="Path_1652" data-name="Path 1652" d="M36.017,59.478l.427.246.35,1.408.314-1.025.412.238.311,1.386.352-1,.427.247-.617,1.739-.294-.17-.387-1.68L36.928,62.1l-.293-.17Z" fill="#c58383"/>
        <path id="Path_1653" data-name="Path 1653" d="M39.229,62.563l.443.256-.221-.736ZM38.5,63l.763-1.656.384.221.763,2.536-.42-.243-.164-.547-.741-.427-.165.357Z" fill="#c58383"/>
        <path id="Path_1654" data-name="Path 1654" d="M41.005,63.379l.288.167q.2.117.276.081c.049-.024.073-.091.073-.2a.468.468,0,0,0-.076-.275.839.839,0,0,0-.266-.216l-.295-.17v.617Zm-.4.845v-2.1l.671.387a1.71,1.71,0,0,1,.588.505,1.122,1.122,0,0,1,.176.634c0,.335-.113.487-.336.455l.448,1.006-.486-.281-.391-.893-.273-.158v.667Z" fill="#c58383"/>
        <path id="Path_1655" data-name="Path 1655" d="M42.449,65.285v-2.1l1.274.736v.417l-.879-.508v.432l.792.457v.4l-.792-.458V65.1l.908.524v.411Z" fill="#c58383"/>
        <path id="Path_1656" data-name="Path 1656" d="M44.1,66.24v-2.1l.4.228v.875l.7.406v-.875l.4.228V67.1l-.4-.228v-.825l-.7-.406v.825Z" fill="#c58383"/>
        <path id="Path_1657" data-name="Path 1657" d="M46.489,66.079a.456.456,0,0,0-.152.392,1.193,1.193,0,0,0,.152.565,1.007,1.007,0,0,0,.373.412.327.327,0,0,0,.373.019.449.449,0,0,0,.152-.39,1.2,1.2,0,0,0-.152-.567.994.994,0,0,0-.373-.414A.323.323,0,0,0,46.489,66.079ZM46.2,67.16a1.833,1.833,0,0,1-.27-.927.65.65,0,0,1,.27-.617.643.643,0,0,1,.661.072,2.019,2.019,0,0,1,.928,1.616.649.649,0,0,1-.269.617.641.641,0,0,1-.659-.071A1.805,1.805,0,0,1,46.2,67.16Z" fill="#c58383"/>
        <path id="Path_1658" data-name="Path 1658" d="M48.1,67.621V66.449l.4.228v1.157a1.019,1.019,0,0,0,.1.454.664.664,0,0,0,.265.3c.111.065.2.067.264.007a.457.457,0,0,0,.1-.341V67.1l.4.228v1.172c0,.3-.071.5-.213.576a.536.536,0,0,1-.544-.07,1.49,1.49,0,0,1-.545-.56A1.6,1.6,0,0,1,48.1,67.621Z" fill="#c58383"/>
        <path id="Path_1659" data-name="Path 1659" d="M49.894,69.239l.234-.205a1.754,1.754,0,0,0,.528.6.229.229,0,0,0,.171.043q.063-.02.063-.114a.323.323,0,0,0-.066-.188,1.805,1.805,0,0,0-.261-.264,2.346,2.346,0,0,1-.452-.487.941.941,0,0,1-.143-.52c0-.2.061-.317.181-.355a.572.572,0,0,1,.451.1,1.78,1.78,0,0,1,.355.277,2.149,2.149,0,0,1,.31.383l-.2.227a1.552,1.552,0,0,0-.476-.483.188.188,0,0,0-.156-.034q-.057.022-.057.114a.311.311,0,0,0,.07.186,2.6,2.6,0,0,0,.321.313,1.948,1.948,0,0,1,.391.446.951.951,0,0,1,.139.509c0,.188-.059.305-.179.353a.559.559,0,0,1-.471-.1A2.23,2.23,0,0,1,49.894,69.239Z" fill="#c58383"/>
        <path id="Path_1660" data-name="Path 1660" d="M51.634,70.587v-2.1l1.275.736v.417l-.88-.508v.432l.792.457v.395l-.792-.457V70.4l.908.524v.411Z" fill="#c58383"/>
      </g>
      <g id="Group_314" data-name="Group 314">
        <path id="Path_1661" data-name="Path 1661" d="M35.972,59.5l.428.247.35,1.408.313-1.025.412.238.311,1.385.352-1,.428.247-.618,1.739-.293-.169-.388-1.68-.384,1.235-.293-.17Z" fill="#c68888"/>
        <path id="Path_1662" data-name="Path 1662" d="M39.185,62.586l.443.256-.221-.736Zm-.734.441.763-1.655.384.221.763,2.536-.42-.243-.164-.547-.741-.427-.165.357Z" fill="#c68888"/>
        <path id="Path_1663" data-name="Path 1663" d="M40.96,63.4l.288.167q.2.117.276.081c.049-.024.074-.091.074-.2a.468.468,0,0,0-.076-.275.839.839,0,0,0-.266-.216l-.295-.171V63.4Zm-.4.844v-2.1l.671.387a1.71,1.71,0,0,1,.588.505,1.133,1.133,0,0,1,.176.635q0,.5-.336.455l.448,1.006-.486-.281-.391-.893-.273-.158v.667Z" fill="#c68888"/>
        <path id="Path_1664" data-name="Path 1664" d="M42.4,65.308v-2.1l1.275.736v.418l-.88-.508v.431l.792.457v.4l-.792-.458v.441l.908.524v.411Z" fill="#c68888"/>
        <path id="Path_1665" data-name="Path 1665" d="M44.058,66.263v-2.1l.4.229v.875l.7.4V64.8l.4.228v2.1l-.4-.228v-.825l-.7-.406v.825Z" fill="#c68888"/>
        <path id="Path_1666" data-name="Path 1666" d="M46.444,66.1a.456.456,0,0,0-.152.392,1.19,1.19,0,0,0,.152.565,1.007,1.007,0,0,0,.373.412.325.325,0,0,0,.372.019.449.449,0,0,0,.152-.39,1.206,1.206,0,0,0-.152-.567,1,1,0,0,0-.372-.414A.321.321,0,0,0,46.444,66.1Zm-.29,1.081a1.833,1.833,0,0,1-.27-.927.65.65,0,0,1,.27-.617.643.643,0,0,1,.661.072,2.014,2.014,0,0,1,.927,1.616.651.651,0,0,1-.268.617.641.641,0,0,1-.659-.071A1.82,1.82,0,0,1,46.154,67.183Z" fill="#c68888"/>
        <path id="Path_1667" data-name="Path 1667" d="M48.05,67.644V66.472l.4.228v1.157a1.019,1.019,0,0,0,.1.454.67.67,0,0,0,.265.3c.111.065.2.067.264.007a.457.457,0,0,0,.1-.341V67.118l.4.228v1.172c0,.3-.071.5-.213.576a.536.536,0,0,1-.544-.07,1.49,1.49,0,0,1-.545-.56A1.608,1.608,0,0,1,48.05,67.644Z" fill="#c68888"/>
        <path id="Path_1668" data-name="Path 1668" d="M49.85,69.261l.234-.205a1.754,1.754,0,0,0,.528.6.229.229,0,0,0,.171.043q.063-.02.063-.114a.323.323,0,0,0-.066-.188,1.773,1.773,0,0,0-.262-.264,2.346,2.346,0,0,1-.452-.487.943.943,0,0,1-.143-.52c0-.2.061-.317.181-.355a.573.573,0,0,1,.451.1,1.78,1.78,0,0,1,.355.277,2.194,2.194,0,0,1,.31.383l-.2.227a1.552,1.552,0,0,0-.476-.483.188.188,0,0,0-.156-.034q-.057.022-.057.114a.311.311,0,0,0,.07.186,2.6,2.6,0,0,0,.321.313,1.948,1.948,0,0,1,.391.446.951.951,0,0,1,.139.509c0,.188-.059.305-.179.353a.559.559,0,0,1-.471-.1A2.241,2.241,0,0,1,49.85,69.261Z" fill="#c68888"/>
        <path id="Path_1669" data-name="Path 1669" d="M51.589,70.609v-2.1l1.275.736v.417l-.88-.508v.432l.793.457v.4l-.793-.457v.44l.909.525v.411Z" fill="#c68888"/>
      </g>
      <g id="Group_315" data-name="Group 315">
        <path id="Path_1670" data-name="Path 1670" d="M35.928,59.523l.427.247.35,1.408.314-1.025.412.237.311,1.386.352-1,.427.247L37.9,62.759l-.294-.169-.387-1.68-.384,1.234-.293-.169Z" fill="#c68e8e"/>
        <path id="Path_1671" data-name="Path 1671" d="M39.14,62.609l.443.256-.221-.736Zm-.733.44.763-1.655.384.221.763,2.536-.42-.243-.164-.547-.741-.427-.165.357Z" fill="#c68e8e"/>
        <path id="Path_1672" data-name="Path 1672" d="M40.916,63.425l.288.167c.136.078.227.1.276.081s.074-.091.074-.2a.468.468,0,0,0-.076-.275.839.839,0,0,0-.266-.216l-.295-.171v.617Zm-.4.844v-2.1l.671.387a1.71,1.71,0,0,1,.588.505,1.122,1.122,0,0,1,.176.634q0,.5-.336.455l.448,1.006-.486-.281-.392-.893-.273-.158V64.5Z" fill="#c68e8e"/>
        <path id="Path_1673" data-name="Path 1673" d="M42.36,65.331v-2.1l1.274.736v.417l-.879-.508v.432l.792.457v.4l-.792-.457v.44l.908.525v.411Z" fill="#c68e8e"/>
        <path id="Path_1674" data-name="Path 1674" d="M44.014,66.286v-2.1l.4.228v.875l.7.406v-.875l.4.228v2.1l-.4-.228v-.825l-.7-.406v.826Z" fill="#c68e8e"/>
        <path id="Path_1675" data-name="Path 1675" d="M46.4,66.124a.456.456,0,0,0-.152.392,1.19,1.19,0,0,0,.152.565,1.007,1.007,0,0,0,.373.412.325.325,0,0,0,.372.019.449.449,0,0,0,.152-.39,1.206,1.206,0,0,0-.152-.567,1,1,0,0,0-.372-.414A.323.323,0,0,0,46.4,66.124Zm-.29,1.082a1.833,1.833,0,0,1-.27-.927.565.565,0,0,1,.931-.544,2.019,2.019,0,0,1,.928,1.616.649.649,0,0,1-.269.617.641.641,0,0,1-.659-.071A1.823,1.823,0,0,1,46.11,67.206Z" fill="#c68e8e"/>
        <path id="Path_1676" data-name="Path 1676" d="M48.006,67.667V66.5l.4.228V67.88a1.019,1.019,0,0,0,.1.454.664.664,0,0,0,.265.3c.111.065.2.067.264.007a.457.457,0,0,0,.1-.341V67.141l.4.228v1.172q0,.456-.213.576a.536.536,0,0,1-.544-.07,1.49,1.49,0,0,1-.545-.56A1.6,1.6,0,0,1,48.006,67.667Z" fill="#c68e8e"/>
        <path id="Path_1677" data-name="Path 1677" d="M49.805,69.284l.234-.205a1.745,1.745,0,0,0,.529.6.229.229,0,0,0,.171.043q.063-.02.063-.114a.323.323,0,0,0-.066-.188,1.724,1.724,0,0,0-.262-.264,2.346,2.346,0,0,1-.452-.487.941.941,0,0,1-.143-.52c0-.2.061-.317.181-.355a.573.573,0,0,1,.451.1,1.78,1.78,0,0,1,.355.277,2.194,2.194,0,0,1,.31.383l-.2.226A1.537,1.537,0,0,0,50.5,68.3a.188.188,0,0,0-.156-.034q-.057.022-.057.114a.311.311,0,0,0,.07.186,2.6,2.6,0,0,0,.321.313,1.948,1.948,0,0,1,.391.446.954.954,0,0,1,.139.509c0,.188-.059.305-.179.353a.56.56,0,0,1-.47-.1A2.235,2.235,0,0,1,49.805,69.284Z" fill="#c68e8e"/>
        <path id="Path_1678" data-name="Path 1678" d="M51.545,70.632v-2.1l1.275.736v.417l-.88-.508v.432l.792.457v.4l-.792-.457v.44l.908.524v.412Z" fill="#c68e8e"/>
      </g>
      <g id="Group_316" data-name="Group 316">
        <path id="Path_1679" data-name="Path 1679" d="M35.883,59.546l.428.246L36.66,61.2l.314-1.025.412.238L37.7,61.8l.352-1,.428.247-.618,1.739-.293-.17-.388-1.679-.384,1.234L36.5,62Z" fill="#c79393"/>
        <path id="Path_1680" data-name="Path 1680" d="M39.1,62.632l.443.256-.221-.736Zm-.734.44.763-1.656.384.221.763,2.536-.42-.243-.164-.547-.741-.427-.165.357Z" fill="#c79393"/>
        <path id="Path_1681" data-name="Path 1681" d="M40.871,63.447l.288.167q.2.117.276.081c.049-.024.074-.091.074-.2a.468.468,0,0,0-.076-.275A.839.839,0,0,0,41.167,63l-.295-.17v.617Zm-.395.845V62.2l.671.387a1.71,1.71,0,0,1,.588.505,1.122,1.122,0,0,1,.176.634c0,.336-.112.487-.336.455l.447,1.006-.486-.281-.391-.893-.273-.158v.667Z" fill="#c79393"/>
        <path id="Path_1682" data-name="Path 1682" d="M42.315,65.354v-2.1l1.275.736v.417l-.88-.508v.432l.792.457v.395l-.792-.457v.44l.908.524v.411Z" fill="#c79393"/>
        <path id="Path_1683" data-name="Path 1683" d="M43.969,66.309v-2.1l.395.228v.875l.7.406v-.875l.4.228v2.1l-.4-.228v-.825l-.7-.406v.826Z" fill="#c79393"/>
        <path id="Path_1684" data-name="Path 1684" d="M46.355,66.147a.456.456,0,0,0-.152.392,1.193,1.193,0,0,0,.152.565,1.007,1.007,0,0,0,.373.412.327.327,0,0,0,.373.019.449.449,0,0,0,.152-.39,1.206,1.206,0,0,0-.152-.567.994.994,0,0,0-.373-.414A.323.323,0,0,0,46.355,66.147Zm-.29,1.082a1.833,1.833,0,0,1-.27-.927.565.565,0,0,1,.931-.544,2.014,2.014,0,0,1,.927,1.616.651.651,0,0,1-.268.617.641.641,0,0,1-.659-.071A1.83,1.83,0,0,1,46.065,67.229Z" fill="#c79393"/>
        <path id="Path_1685" data-name="Path 1685" d="M47.961,67.689V66.517l.4.228V67.9a1.019,1.019,0,0,0,.1.454.664.664,0,0,0,.265.3c.111.065.2.067.264.007a.457.457,0,0,0,.1-.341V67.163l.4.228v1.172q0,.456-.213.576a.536.536,0,0,1-.544-.07,1.49,1.49,0,0,1-.545-.56A1.6,1.6,0,0,1,47.961,67.689Z" fill="#c79393"/>
        <path id="Path_1686" data-name="Path 1686" d="M49.761,69.307,50,69.1a1.754,1.754,0,0,0,.528.6.229.229,0,0,0,.171.043q.063-.02.063-.114a.323.323,0,0,0-.066-.188,1.773,1.773,0,0,0-.262-.264,2.346,2.346,0,0,1-.452-.487.943.943,0,0,1-.143-.52c0-.2.061-.317.181-.355a.572.572,0,0,1,.451.1,1.78,1.78,0,0,1,.355.277,2.194,2.194,0,0,1,.31.383l-.2.227a1.552,1.552,0,0,0-.476-.483.188.188,0,0,0-.156-.034q-.057.022-.057.114a.311.311,0,0,0,.07.186,2.6,2.6,0,0,0,.321.313,1.948,1.948,0,0,1,.391.446.954.954,0,0,1,.139.509c0,.188-.059.305-.179.353a.559.559,0,0,1-.471-.1A2.22,2.22,0,0,1,49.761,69.307Z" fill="#c79393"/>
        <path id="Path_1687" data-name="Path 1687" d="M51.5,70.655v-2.1l1.275.736v.418l-.88-.508v.431l.793.457v.4l-.793-.458v.441L52.8,71v.411Z" fill="#c79393"/>
      </g>
      <g id="Group_317" data-name="Group 317">
        <path id="Path_1688" data-name="Path 1688" d="M35.839,59.569l.427.246.35,1.408L36.93,60.2l.411.238.312,1.386.352-1,.427.246-.617,1.74-.294-.17-.388-1.68-.384,1.235-.293-.17Z" fill="#c89999"/>
        <path id="Path_1689" data-name="Path 1689" d="M39.051,62.654l.443.256-.221-.736Zm-.734.441.763-1.655.384.221.763,2.536-.42-.243-.164-.547L38.9,62.98l-.165.357Z" fill="#c89999"/>
        <path id="Path_1690" data-name="Path 1690" d="M40.826,63.47l.288.167q.2.117.276.081c.049-.024.074-.091.074-.2a.468.468,0,0,0-.076-.275.839.839,0,0,0-.266-.216l-.295-.17v.617Zm-.4.845v-2.1l.671.387a1.71,1.71,0,0,1,.588.505,1.122,1.122,0,0,1,.176.634q0,.5-.336.455l.448,1.006-.486-.281-.392-.893-.273-.158v.667Z" fill="#c89999"/>
        <path id="Path_1691" data-name="Path 1691" d="M42.271,65.376v-2.1l1.274.736v.417l-.879-.508v.431l.792.458v.395l-.792-.458v.441l.907.524v.411Z" fill="#c89999"/>
        <path id="Path_1692" data-name="Path 1692" d="M43.924,66.331v-2.1l.4.228v.875l.7.405v-.875l.4.229v2.1l-.4-.228V66.14l-.7-.406v.825Z" fill="#c89999"/>
        <path id="Path_1693" data-name="Path 1693" d="M46.31,66.17a.456.456,0,0,0-.152.392,1.19,1.19,0,0,0,.152.565,1.007,1.007,0,0,0,.373.412.325.325,0,0,0,.372.019.449.449,0,0,0,.152-.39,1.206,1.206,0,0,0-.152-.567,1,1,0,0,0-.372-.414A.321.321,0,0,0,46.31,66.17Zm-.289,1.081a1.833,1.833,0,0,1-.27-.927.565.565,0,0,1,.931-.544A2.019,2.019,0,0,1,47.61,67.4a.649.649,0,0,1-.269.617.641.641,0,0,1-.659-.071A1.815,1.815,0,0,1,46.021,67.251Z" fill="#c89999"/>
        <path id="Path_1694" data-name="Path 1694" d="M47.917,67.712V66.54l.4.228v1.157a1.019,1.019,0,0,0,.1.454.664.664,0,0,0,.265.3c.111.065.2.067.264.007a.457.457,0,0,0,.1-.341V67.186l.4.229v1.172q0,.456-.213.576a.536.536,0,0,1-.544-.07,1.49,1.49,0,0,1-.545-.56A1.6,1.6,0,0,1,47.917,67.712Z" fill="#c89999"/>
        <path id="Path_1695" data-name="Path 1695" d="M49.716,69.329l.234-.205a1.745,1.745,0,0,0,.529.6.229.229,0,0,0,.171.043q.063-.02.063-.114a.323.323,0,0,0-.066-.188,1.724,1.724,0,0,0-.262-.264,2.346,2.346,0,0,1-.452-.487.943.943,0,0,1-.143-.52c0-.2.061-.317.181-.355a.572.572,0,0,1,.451.1,1.78,1.78,0,0,1,.355.277,2.149,2.149,0,0,1,.31.383l-.2.227a1.552,1.552,0,0,0-.476-.483.188.188,0,0,0-.156-.034q-.057.022-.057.114a.311.311,0,0,0,.07.186,2.6,2.6,0,0,0,.321.313,1.948,1.948,0,0,1,.391.446.951.951,0,0,1,.139.509c0,.188-.059.305-.179.353a.56.56,0,0,1-.47-.1A2.215,2.215,0,0,1,49.716,69.329Z" fill="#c89999"/>
        <path id="Path_1696" data-name="Path 1696" d="M51.456,70.677v-2.1l1.274.736v.417l-.879-.508v.432l.792.457v.4l-.792-.457v.44l.908.525v.411Z" fill="#c89999"/>
      </g>
      <g id="Group_318" data-name="Group 318">
        <path id="Path_1697" data-name="Path 1697" d="M35.794,59.591l.428.247.349,1.408.314-1.025.412.237.311,1.386.352-1,.428.247-.618,1.739-.293-.169-.388-1.68-.384,1.234-.293-.169Z" fill="#c99e9e"/>
        <path id="Path_1698" data-name="Path 1698" d="M39.006,62.677l.443.256-.221-.736Zm-.733.441.763-1.655.384.222.763,2.536-.42-.243-.164-.547L38.858,63l-.165.357Z" fill="#c99e9e"/>
        <path id="Path_1699" data-name="Path 1699" d="M40.782,63.493l.288.167c.136.078.227.1.276.081s.074-.091.074-.2a.468.468,0,0,0-.076-.275.839.839,0,0,0-.266-.216l-.295-.17v.616Zm-.4.844v-2.1l.671.387a1.71,1.71,0,0,1,.588.505,1.127,1.127,0,0,1,.176.634c0,.335-.113.487-.336.455l.447,1.006-.486-.281-.391-.893-.273-.158v.667Z" fill="#c99e9e"/>
        <path id="Path_1700" data-name="Path 1700" d="M42.226,65.4V63.3l1.274.736v.417l-.879-.507v.431l.792.457v.4l-.792-.457v.441l.908.524v.411Z" fill="#c99e9e"/>
        <path id="Path_1701" data-name="Path 1701" d="M43.88,66.354v-2.1l.4.228v.876l.7.4v-.875l.4.228v2.1l-.4-.228v-.826l-.7-.4v.825Z" fill="#c99e9e"/>
        <path id="Path_1702" data-name="Path 1702" d="M46.266,66.192a.456.456,0,0,0-.152.392,1.19,1.19,0,0,0,.152.565,1.007,1.007,0,0,0,.373.412.325.325,0,0,0,.372.019.449.449,0,0,0,.152-.39,1.206,1.206,0,0,0-.152-.567,1,1,0,0,0-.372-.414A.323.323,0,0,0,46.266,66.192Zm-.29,1.082a1.833,1.833,0,0,1-.27-.927.565.565,0,0,1,.931-.544,2.019,2.019,0,0,1,.928,1.616.649.649,0,0,1-.269.617.641.641,0,0,1-.659-.071A1.83,1.83,0,0,1,45.976,67.274Z" fill="#c99e9e"/>
        <path id="Path_1703" data-name="Path 1703" d="M47.872,67.735V66.563l.4.228v1.157a1.019,1.019,0,0,0,.1.454.664.664,0,0,0,.265.3c.111.065.2.067.264.007a.457.457,0,0,0,.1-.341V67.209l.4.229V68.61q0,.456-.213.576a.536.536,0,0,1-.544-.07,1.49,1.49,0,0,1-.545-.56A1.614,1.614,0,0,1,47.872,67.735Z" fill="#c99e9e"/>
        <path id="Path_1704" data-name="Path 1704" d="M49.672,69.352l.234-.205a1.754,1.754,0,0,0,.528.6.229.229,0,0,0,.171.043q.063-.02.063-.114a.323.323,0,0,0-.066-.188,1.754,1.754,0,0,0-.261-.264,2.346,2.346,0,0,1-.452-.487.941.941,0,0,1-.143-.52c0-.2.061-.317.181-.355a.572.572,0,0,1,.451.1,1.78,1.78,0,0,1,.355.277,2.194,2.194,0,0,1,.31.383l-.2.226a1.552,1.552,0,0,0-.476-.483.188.188,0,0,0-.156-.034q-.057.022-.057.114a.311.311,0,0,0,.07.186,2.6,2.6,0,0,0,.321.313,1.948,1.948,0,0,1,.391.446.951.951,0,0,1,.139.509c0,.188-.059.305-.179.353a.559.559,0,0,1-.471-.1A2.2,2.2,0,0,1,49.672,69.352Z" fill="#c99e9e"/>
        <path id="Path_1705" data-name="Path 1705" d="M51.411,70.7V68.605l1.275.736v.417l-.88-.508v.432l.792.457v.395l-.792-.457v.44l.908.524v.412Z" fill="#c99e9e"/>
      </g>
      <g id="Group_319" data-name="Group 319">
        <path id="Path_1706" data-name="Path 1706" d="M35.75,59.614l.427.247.35,1.408.313-1.026.412.238.311,1.386.352-1,.428.247-.618,1.739-.293-.17L37.044,61l-.384,1.234-.293-.17Z" fill="#c9a4a4"/>
        <path id="Path_1707" data-name="Path 1707" d="M38.962,62.7l.443.256-.221-.736Zm-.734.44.763-1.656.384.222.763,2.536L39.718,64l-.164-.547-.741-.427-.165.357Z" fill="#c9a4a4"/>
        <path id="Path_1708" data-name="Path 1708" d="M40.737,63.515l.288.167q.2.117.276.081c.049-.024.074-.091.074-.2a.468.468,0,0,0-.076-.275.827.827,0,0,0-.266-.216l-.295-.17v.617Zm-.4.845v-2.1l.671.387a1.71,1.71,0,0,1,.588.505,1.12,1.12,0,0,1,.176.634c0,.336-.112.487-.336.455l.448,1.006-.486-.281-.392-.893-.273-.158v.667Z" fill="#c9a4a4"/>
        <path id="Path_1709" data-name="Path 1709" d="M42.181,65.422v-2.1l1.275.736v.417l-.88-.508V64.4l.792.457v.395l-.792-.457v.44l.908.525v.411Z" fill="#c9a4a4"/>
        <path id="Path_1710" data-name="Path 1710" d="M43.835,66.377v-2.1l.4.228v.875l.7.406v-.875l.4.228v2.1l-.4-.228v-.825l-.7-.406v.826Z" fill="#c9a4a4"/>
        <path id="Path_1711" data-name="Path 1711" d="M46.221,66.215a.456.456,0,0,0-.152.392,1.19,1.19,0,0,0,.152.565,1.007,1.007,0,0,0,.373.412.325.325,0,0,0,.372.019.449.449,0,0,0,.152-.39,1.206,1.206,0,0,0-.152-.567,1,1,0,0,0-.372-.414A.323.323,0,0,0,46.221,66.215Zm-.29,1.082a1.833,1.833,0,0,1-.27-.927.565.565,0,0,1,.931-.544,2.019,2.019,0,0,1,.928,1.616.649.649,0,0,1-.269.617.641.641,0,0,1-.659-.071A1.837,1.837,0,0,1,45.931,67.3Z" fill="#c9a4a4"/>
        <path id="Path_1712" data-name="Path 1712" d="M47.827,67.757V66.585l.4.228V67.97a1.019,1.019,0,0,0,.1.454.664.664,0,0,0,.265.3c.111.065.2.067.264.007a.457.457,0,0,0,.1-.341V67.231l.4.228v1.172c0,.3-.071.5-.213.576a.536.536,0,0,1-.544-.07,1.49,1.49,0,0,1-.545-.56A1.6,1.6,0,0,1,47.827,67.757Z" fill="#c9a4a4"/>
        <path id="Path_1713" data-name="Path 1713" d="M49.627,69.375l.234-.205a1.754,1.754,0,0,0,.528.6.229.229,0,0,0,.171.043q.063-.02.063-.114a.323.323,0,0,0-.066-.188,1.773,1.773,0,0,0-.262-.264,2.346,2.346,0,0,1-.452-.487.941.941,0,0,1-.143-.52c0-.2.061-.317.181-.355a.576.576,0,0,1,.451.1,1.78,1.78,0,0,1,.355.277,2.194,2.194,0,0,1,.31.383l-.2.227a1.552,1.552,0,0,0-.476-.483.188.188,0,0,0-.156-.034q-.057.022-.057.114a.311.311,0,0,0,.07.186,2.6,2.6,0,0,0,.321.313,1.948,1.948,0,0,1,.391.446.951.951,0,0,1,.139.509c0,.188-.059.305-.179.353a.556.556,0,0,1-.47-.1A2.23,2.23,0,0,1,49.627,69.375Z" fill="#c9a4a4"/>
        <path id="Path_1714" data-name="Path 1714" d="M51.367,70.723v-2.1l1.274.736v.417l-.879-.508V69.7l.792.458v.395l-.792-.458v.441l.908.524v.412Z" fill="#c9a4a4"/>
      </g>
      <g id="Group_320" data-name="Group 320">
        <path id="Path_1715" data-name="Path 1715" d="M35.705,59.637l.427.246.35,1.408.314-1.025.412.238.311,1.386.352-1,.428.247-.618,1.739-.294-.17L37,61.023l-.384,1.235-.293-.17Z" fill="#caa9a9"/>
        <path id="Path_1716" data-name="Path 1716" d="M38.917,62.722l.443.256-.221-.736Zm-.733.441.763-1.656.384.221.763,2.536-.42-.243-.164-.547-.741-.427L38.6,63.4Z" fill="#caa9a9"/>
        <path id="Path_1717" data-name="Path 1717" d="M40.693,63.538l.288.167q.2.117.276.081c.049-.024.073-.091.073-.2a.468.468,0,0,0-.076-.275.839.839,0,0,0-.266-.216l-.295-.17v.616Zm-.4.845v-2.1l.671.387a1.71,1.71,0,0,1,.588.505,1.122,1.122,0,0,1,.176.634c0,.335-.113.487-.336.455l.448,1.006-.486-.281-.391-.893-.273-.158v.667Z" fill="#caa9a9"/>
        <path id="Path_1718" data-name="Path 1718" d="M42.137,65.444v-2.1l1.274.736V64.5l-.879-.508v.431l.792.458v.395l-.792-.457v.44l.908.524V66.2Z" fill="#caa9a9"/>
        <path id="Path_1719" data-name="Path 1719" d="M43.791,66.4V64.3l.4.228v.875l.7.406v-.875l.4.228v2.1l-.4-.228v-.825l-.7-.406v.825Z" fill="#caa9a9"/>
        <path id="Path_1720" data-name="Path 1720" d="M46.177,66.238a.456.456,0,0,0-.152.392,1.179,1.179,0,0,0,.152.565,1.007,1.007,0,0,0,.373.412.327.327,0,0,0,.373.019.449.449,0,0,0,.152-.39,1.206,1.206,0,0,0-.152-.567.994.994,0,0,0-.373-.414A.321.321,0,0,0,46.177,66.238Zm-.29,1.081a1.833,1.833,0,0,1-.27-.927.65.65,0,0,1,.27-.617.643.643,0,0,1,.661.072,2.019,2.019,0,0,1,.928,1.616.649.649,0,0,1-.269.617.641.641,0,0,1-.659-.071A1.8,1.8,0,0,1,45.887,67.319Z" fill="#caa9a9"/>
        <path id="Path_1721" data-name="Path 1721" d="M47.783,67.78V66.608l.4.228v1.157a1.019,1.019,0,0,0,.1.454.664.664,0,0,0,.265.3c.111.065.2.067.264.007a.457.457,0,0,0,.1-.341V67.254l.4.228v1.172q0,.456-.213.576a.536.536,0,0,1-.544-.07A1.49,1.49,0,0,1,48,68.6,1.6,1.6,0,0,1,47.783,67.78Z" fill="#caa9a9"/>
        <path id="Path_1722" data-name="Path 1722" d="M49.582,69.4l.234-.205a1.754,1.754,0,0,0,.528.6.229.229,0,0,0,.171.043q.063-.02.063-.114a.323.323,0,0,0-.066-.188,1.754,1.754,0,0,0-.261-.264,2.346,2.346,0,0,1-.452-.487.941.941,0,0,1-.143-.52c0-.2.061-.317.181-.355a.573.573,0,0,1,.451.1,1.78,1.78,0,0,1,.355.277,2.149,2.149,0,0,1,.31.383l-.2.227a1.552,1.552,0,0,0-.476-.483.188.188,0,0,0-.156-.034q-.057.022-.057.114a.311.311,0,0,0,.07.186,2.555,2.555,0,0,0,.322.313,1.948,1.948,0,0,1,.391.446.951.951,0,0,1,.139.509c0,.188-.059.305-.179.353a.559.559,0,0,1-.471-.1A2.219,2.219,0,0,1,49.582,69.4Z" fill="#caa9a9"/>
        <path id="Path_1723" data-name="Path 1723" d="M51.322,70.746v-2.1l1.275.736V69.8l-.88-.507v.431l.792.457v.4l-.792-.457v.441l.908.524V71.5Z" fill="#caa9a9"/>
      </g>
      <g id="Group_321" data-name="Group 321">
        <path id="Path_1724" data-name="Path 1724" d="M35.66,59.66l.428.246.35,1.408.313-1.025.412.238.311,1.385.352-1,.428.246-.618,1.74-.293-.17-.388-1.68-.384,1.235-.293-.17Z" fill="#cbafaf"/>
        <path id="Path_1725" data-name="Path 1725" d="M38.873,62.745l.443.256-.221-.736Zm-.734.441.763-1.655.384.221.763,2.536-.42-.243-.164-.547-.741-.427-.165.357Z" fill="#cbafaf"/>
        <path id="Path_1726" data-name="Path 1726" d="M40.648,63.561l.288.167q.2.117.276.081c.049-.024.074-.091.074-.2a.468.468,0,0,0-.076-.275.839.839,0,0,0-.266-.216l-.295-.171v.617Zm-.4.844V62.31l.671.387a1.71,1.71,0,0,1,.588.505,1.122,1.122,0,0,1,.176.634q0,.5-.336.455L41.8,65.3l-.486-.281-.391-.893-.273-.158v.667Z" fill="#cbafaf"/>
        <path id="Path_1727" data-name="Path 1727" d="M42.092,65.467v-2.1l1.275.736v.417l-.88-.507v.431l.792.458V65.3l-.792-.457v.441l.908.524v.411Z" fill="#cbafaf"/>
        <path id="Path_1728" data-name="Path 1728" d="M43.746,66.422v-2.1l.4.228v.876l.7.4V64.96l.4.228v2.1l-.4-.228v-.825l-.7-.406v.825Z" fill="#cbafaf"/>
        <path id="Path_1729" data-name="Path 1729" d="M46.132,66.261a.456.456,0,0,0-.152.392,1.19,1.19,0,0,0,.152.565,1.007,1.007,0,0,0,.373.412.325.325,0,0,0,.372.019.449.449,0,0,0,.152-.39,1.206,1.206,0,0,0-.152-.567,1,1,0,0,0-.372-.414A.32.32,0,0,0,46.132,66.261Zm-.29,1.081a1.833,1.833,0,0,1-.27-.927.65.65,0,0,1,.27-.617.643.643,0,0,1,.661.072,2.014,2.014,0,0,1,.927,1.616.651.651,0,0,1-.268.617.641.641,0,0,1-.659-.071A1.82,1.82,0,0,1,45.842,67.342Z" fill="#cbafaf"/>
        <path id="Path_1730" data-name="Path 1730" d="M47.738,67.8V66.631l.4.228v1.157a1.019,1.019,0,0,0,.1.454.67.67,0,0,0,.265.3c.111.065.2.067.264.007a.457.457,0,0,0,.1-.341V67.277l.4.228v1.172q0,.456-.213.576a.536.536,0,0,1-.544-.07,1.49,1.49,0,0,1-.545-.56A1.608,1.608,0,0,1,47.738,67.8Z" fill="#cbafaf"/>
        <path id="Path_1731" data-name="Path 1731" d="M49.538,69.42l.234-.205a1.754,1.754,0,0,0,.528.6.229.229,0,0,0,.171.043q.063-.02.063-.114a.323.323,0,0,0-.066-.188,1.773,1.773,0,0,0-.262-.264,2.346,2.346,0,0,1-.452-.487.941.941,0,0,1-.143-.52c0-.2.061-.317.181-.355a.572.572,0,0,1,.451.1,1.78,1.78,0,0,1,.355.277,2.194,2.194,0,0,1,.31.383l-.2.226a1.552,1.552,0,0,0-.476-.483.188.188,0,0,0-.156-.034q-.057.022-.057.114a.311.311,0,0,0,.07.186,2.6,2.6,0,0,0,.321.313,1.948,1.948,0,0,1,.391.446.954.954,0,0,1,.139.509c0,.188-.059.305-.179.353a.559.559,0,0,1-.471-.1A2.217,2.217,0,0,1,49.538,69.42Z" fill="#cbafaf"/>
        <path id="Path_1732" data-name="Path 1732" d="M51.277,70.768v-2.1l1.275.736v.417l-.88-.508v.432l.793.457V70.6l-.793-.457v.44l.909.525v.411Z" fill="#cbafaf"/>
      </g>
      <g id="Group_322" data-name="Group 322">
        <path id="Path_1733" data-name="Path 1733" d="M35.616,59.682l.427.247.35,1.408.314-1.025.411.237.312,1.386.352-1,.427.247-.617,1.739-.294-.169-.387-1.68L36.527,62.3l-.293-.169Z" fill="#ccb4b4"/>
        <path id="Path_1734" data-name="Path 1734" d="M38.828,62.768l.443.256-.221-.736Zm-.733.44.763-1.655.384.221.763,2.536-.42-.243-.164-.547-.741-.427-.165.357Z" fill="#ccb4b4"/>
        <path id="Path_1735" data-name="Path 1735" d="M40.6,63.584l.288.167q.2.117.276.081c.049-.024.073-.091.073-.2a.468.468,0,0,0-.076-.275.839.839,0,0,0-.266-.216l-.295-.171v.618Zm-.4.844v-2.1l.671.387a1.71,1.71,0,0,1,.588.505,1.122,1.122,0,0,1,.176.634q0,.5-.336.455l.447,1.006-.486-.281-.391-.893-.273-.158v.667Z" fill="#ccb4b4"/>
        <path id="Path_1736" data-name="Path 1736" d="M42.048,65.49v-2.1l1.274.736v.417l-.879-.508v.432l.792.457v.395l-.792-.457v.441l.908.524v.411Z" fill="#ccb4b4"/>
        <path id="Path_1737" data-name="Path 1737" d="M43.7,66.445v-2.1l.4.228v.875l.7.406v-.875l.4.228v2.1l-.4-.228v-.825l-.7-.406v.826Z" fill="#ccb4b4"/>
        <path id="Path_1738" data-name="Path 1738" d="M46.088,66.283a.456.456,0,0,0-.152.392,1.193,1.193,0,0,0,.152.565,1.007,1.007,0,0,0,.373.412.325.325,0,0,0,.372.019.449.449,0,0,0,.152-.39,1.206,1.206,0,0,0-.152-.567,1,1,0,0,0-.372-.414A.323.323,0,0,0,46.088,66.283Zm-.29,1.082a1.833,1.833,0,0,1-.27-.927.565.565,0,0,1,.931-.544,2.019,2.019,0,0,1,.928,1.616.649.649,0,0,1-.269.617.641.641,0,0,1-.659-.071A1.822,1.822,0,0,1,45.8,67.365Z" fill="#ccb4b4"/>
        <path id="Path_1739" data-name="Path 1739" d="M47.694,67.826V66.654l.4.228v1.157a1.019,1.019,0,0,0,.1.454.664.664,0,0,0,.265.3c.111.065.2.067.264.007a.457.457,0,0,0,.1-.341V67.3l.4.228V68.7q0,.456-.213.576a.536.536,0,0,1-.544-.07,1.49,1.49,0,0,1-.545-.56A1.6,1.6,0,0,1,47.694,67.826Z" fill="#ccb4b4"/>
        <path id="Path_1740" data-name="Path 1740" d="M49.493,69.443l.234-.205a1.754,1.754,0,0,0,.528.6.229.229,0,0,0,.171.043q.063-.02.063-.114a.323.323,0,0,0-.066-.188,1.773,1.773,0,0,0-.262-.264,2.346,2.346,0,0,1-.452-.487.943.943,0,0,1-.143-.52c0-.2.061-.317.181-.355a.572.572,0,0,1,.451.1,1.78,1.78,0,0,1,.355.277,2.194,2.194,0,0,1,.31.383l-.2.227a1.537,1.537,0,0,0-.476-.482.188.188,0,0,0-.156-.034q-.057.022-.057.114a.316.316,0,0,0,.07.187,2.6,2.6,0,0,0,.321.313,1.948,1.948,0,0,1,.391.446.954.954,0,0,1,.139.509c0,.188-.059.305-.179.353a.559.559,0,0,1-.471-.1A2.261,2.261,0,0,1,49.493,69.443Z" fill="#ccb4b4"/>
        <path id="Path_1741" data-name="Path 1741" d="M51.233,70.791V68.7l1.275.736v.417l-.88-.508v.432l.792.457v.395l-.792-.457v.44l.908.524v.412Z" fill="#ccb4b4"/>
      </g>
      <g id="Group_323" data-name="Group 323">
        <path id="Path_1742" data-name="Path 1742" d="M35.571,59.705l.428.246.349,1.408.314-1.025.412.238.311,1.386.352-1,.428.247-.618,1.739-.293-.17-.388-1.679-.384,1.234-.293-.17Z" fill="#cdbaba"/>
        <path id="Path_1743" data-name="Path 1743" d="M38.784,62.791l.443.256-.221-.736Zm-.734.44.763-1.656.384.221.763,2.536-.42-.243-.164-.547-.741-.427-.165.357Z" fill="#cdbaba"/>
        <path id="Path_1744" data-name="Path 1744" d="M40.559,63.606l.288.167q.2.117.276.081c.049-.024.074-.092.074-.2a.468.468,0,0,0-.076-.275.839.839,0,0,0-.266-.216l-.295-.17v.617Zm-.395.845v-2.1l.671.387a1.71,1.71,0,0,1,.588.505,1.122,1.122,0,0,1,.176.634q0,.5-.336.455l.448,1.006-.486-.281-.391-.893-.273-.158v.667Z" fill="#cdbaba"/>
        <path id="Path_1745" data-name="Path 1745" d="M42,65.512v-2.1l1.275.736v.417l-.88-.508v.432l.792.457v.4l-.792-.457v.44l.908.524v.411Z" fill="#cdbaba"/>
        <path id="Path_1746" data-name="Path 1746" d="M43.657,66.467v-2.1l.395.228v.875l.7.406v-.875l.4.228v2.1l-.4-.228v-.825l-.7-.406V66.7Z" fill="#cdbaba"/>
        <path id="Path_1747" data-name="Path 1747" d="M46.043,66.306a.456.456,0,0,0-.152.392,1.19,1.19,0,0,0,.152.565,1.007,1.007,0,0,0,.373.412.327.327,0,0,0,.373.019.449.449,0,0,0,.152-.39,1.2,1.2,0,0,0-.152-.567.994.994,0,0,0-.373-.414A.323.323,0,0,0,46.043,66.306Zm-.29,1.081a1.833,1.833,0,0,1-.27-.927.565.565,0,0,1,.931-.544,2.019,2.019,0,0,1,.928,1.616.649.649,0,0,1-.269.617.641.641,0,0,1-.659-.071A1.815,1.815,0,0,1,45.753,67.387Z" fill="#cdbaba"/>
        <path id="Path_1748" data-name="Path 1748" d="M47.649,67.848V66.676l.4.228v1.157a1.019,1.019,0,0,0,.1.454.664.664,0,0,0,.265.3c.111.065.2.067.264.007a.457.457,0,0,0,.1-.341V67.322l.4.229v1.172q0,.456-.213.576a.536.536,0,0,1-.544-.07,1.49,1.49,0,0,1-.545-.56A1.611,1.611,0,0,1,47.649,67.848Z" fill="#cdbaba"/>
        <path id="Path_1749" data-name="Path 1749" d="M49.449,69.466l.234-.205a1.754,1.754,0,0,0,.528.6.229.229,0,0,0,.171.043q.063-.02.063-.114a.323.323,0,0,0-.066-.188,1.773,1.773,0,0,0-.262-.264,2.346,2.346,0,0,1-.452-.487.943.943,0,0,1-.143-.52c0-.2.061-.317.181-.355a.572.572,0,0,1,.451.1,1.78,1.78,0,0,1,.355.277,2.194,2.194,0,0,1,.31.383l-.2.227a1.537,1.537,0,0,0-.476-.482.188.188,0,0,0-.156-.034q-.057.022-.057.114a.311.311,0,0,0,.07.186,2.6,2.6,0,0,0,.321.313,1.948,1.948,0,0,1,.391.446.951.951,0,0,1,.139.509c0,.188-.059.305-.179.353a.562.562,0,0,1-.471-.1A2.24,2.24,0,0,1,49.449,69.466Z" fill="#cdbaba"/>
        <path id="Path_1750" data-name="Path 1750" d="M51.188,70.814v-2.1l1.275.736v.417l-.88-.507v.431l.792.458v.394l-.792-.457v.441l.909.524v.411Z" fill="#cdbaba"/>
      </g>
      <g id="Group_324" data-name="Group 324">
        <path id="Path_1751" data-name="Path 1751" d="M35.527,59.728l.427.246.35,1.408.314-1.025.411.238.312,1.386.352-1,.427.246-.617,1.74-.294-.17-.388-1.68-.384,1.235-.293-.17Z" fill="#cdbfbf"/>
        <path id="Path_1752" data-name="Path 1752" d="M38.739,62.813l.443.256-.221-.736Zm-.734.441.763-1.655.384.222.763,2.536-.42-.243-.164-.547-.741-.427-.165.357Z" fill="#cdbfbf"/>
        <path id="Path_1753" data-name="Path 1753" d="M40.514,63.629l.288.167q.2.117.276.081c.049-.024.074-.091.074-.2a.468.468,0,0,0-.076-.275.839.839,0,0,0-.266-.216l-.295-.17v.617Zm-.4.845v-2.1l.671.387a1.71,1.71,0,0,1,.588.505,1.12,1.12,0,0,1,.176.634q0,.5-.336.455l.447,1.006-.486-.281-.392-.893-.273-.158V64.7Z" fill="#cdbfbf"/>
        <path id="Path_1754" data-name="Path 1754" d="M41.958,65.535v-2.1l1.275.735v.418l-.879-.508v.431l.792.458v.4l-.792-.458v.441l.907.524v.411Z" fill="#cdbfbf"/>
        <path id="Path_1755" data-name="Path 1755" d="M43.612,66.49v-2.1l.4.228V65.5l.7.4v-.874l.4.228v2.095l-.4-.228V66.3l-.7-.406v.825Z" fill="#cdbfbf"/>
        <path id="Path_1756" data-name="Path 1756" d="M46,66.329a.456.456,0,0,0-.152.392,1.19,1.19,0,0,0,.152.565,1.007,1.007,0,0,0,.373.412.325.325,0,0,0,.372.019.449.449,0,0,0,.152-.39,1.206,1.206,0,0,0-.152-.567,1,1,0,0,0-.372-.414A.321.321,0,0,0,46,66.329Zm-.29,1.081a1.833,1.833,0,0,1-.27-.927.565.565,0,0,1,.931-.544,2.019,2.019,0,0,1,.928,1.616.649.649,0,0,1-.269.617.641.641,0,0,1-.659-.071A1.83,1.83,0,0,1,45.708,67.41Z" fill="#cdbfbf"/>
        <path id="Path_1757" data-name="Path 1757" d="M47.6,67.871V66.7l.4.227v1.157a1.019,1.019,0,0,0,.1.454.664.664,0,0,0,.265.3c.111.065.2.067.264.007a.457.457,0,0,0,.1-.341V67.344l.4.229v1.172q0,.456-.213.576a.536.536,0,0,1-.544-.07,1.49,1.49,0,0,1-.545-.56A1.6,1.6,0,0,1,47.6,67.871Z" fill="#cdbfbf"/>
        <path id="Path_1758" data-name="Path 1758" d="M49.4,69.488l.234-.205a1.754,1.754,0,0,0,.528.6.229.229,0,0,0,.171.043q.063-.02.063-.114a.323.323,0,0,0-.066-.188,1.724,1.724,0,0,0-.262-.264,2.346,2.346,0,0,1-.452-.487.941.941,0,0,1-.143-.52c0-.2.061-.317.181-.355a.572.572,0,0,1,.451.1,1.78,1.78,0,0,1,.355.277,2.194,2.194,0,0,1,.31.383l-.2.227A1.552,1.552,0,0,0,50.1,68.5a.188.188,0,0,0-.156-.034q-.057.022-.057.114a.311.311,0,0,0,.07.186,2.6,2.6,0,0,0,.321.313,1.948,1.948,0,0,1,.391.446.951.951,0,0,1,.139.509c0,.188-.059.305-.179.353a.562.562,0,0,1-.471-.1A2.22,2.22,0,0,1,49.4,69.488Z" fill="#cdbfbf"/>
        <path id="Path_1759" data-name="Path 1759" d="M51.144,70.836v-2.1l1.274.736v.417l-.879-.508v.432l.792.457v.395l-.792-.457v.441l.908.524v.411Z" fill="#cdbfbf"/>
      </g>
      <g id="Group_325" data-name="Group 325">
        <path id="Path_1760" data-name="Path 1760" d="M35.482,59.75,35.91,60l.349,1.408.314-1.025.412.238L37.3,62l.352-1,.428.247-.618,1.739-.293-.169-.388-1.68-.384,1.234L36.1,62.2Z" fill="#cec5c5"/>
        <path id="Path_1761" data-name="Path 1761" d="M38.694,62.836l.443.256-.221-.736Zm-.733.441.763-1.655.384.222.763,2.536-.42-.243-.164-.547-.741-.427-.165.357Z" fill="#cec5c5"/>
        <path id="Path_1762" data-name="Path 1762" d="M40.47,63.652l.288.167q.2.117.276.081c.049-.024.074-.091.074-.2a.468.468,0,0,0-.076-.275.839.839,0,0,0-.266-.216l-.295-.17v.616Zm-.4.844V62.4l.671.387a1.71,1.71,0,0,1,.588.505,1.12,1.12,0,0,1,.176.634c0,.336-.112.487-.336.455l.447,1.006-.486-.281-.391-.893-.273-.158v.667Z" fill="#cec5c5"/>
        <path id="Path_1763" data-name="Path 1763" d="M41.914,65.558v-2.1l1.274.736v.417l-.879-.508v.432L43.1,65v.395l-.792-.457v.441l.908.524v.411Z" fill="#cec5c5"/>
        <path id="Path_1764" data-name="Path 1764" d="M43.568,66.513v-2.1l.4.228v.876l.7.4v-.875l.4.228v2.1l-.4-.229v-.824l-.7-.406v.825Z" fill="#cec5c5"/>
        <path id="Path_1765" data-name="Path 1765" d="M45.954,66.351a.456.456,0,0,0-.152.392,1.19,1.19,0,0,0,.152.565,1.007,1.007,0,0,0,.373.412.325.325,0,0,0,.372.019.449.449,0,0,0,.152-.39,1.206,1.206,0,0,0-.152-.567,1,1,0,0,0-.372-.414A.323.323,0,0,0,45.954,66.351Zm-.29,1.082a1.833,1.833,0,0,1-.27-.927.565.565,0,0,1,.931-.544,2.014,2.014,0,0,1,.927,1.616.651.651,0,0,1-.268.617.641.641,0,0,1-.659-.071A1.823,1.823,0,0,1,45.664,67.433Z" fill="#cec5c5"/>
        <path id="Path_1766" data-name="Path 1766" d="M47.56,67.894V66.722l.4.228v1.157a1.019,1.019,0,0,0,.1.454.664.664,0,0,0,.265.3c.111.065.2.067.264.007a.457.457,0,0,0,.1-.341V67.368l.4.229v1.172q0,.456-.213.576a.536.536,0,0,1-.544-.07,1.49,1.49,0,0,1-.545-.56A1.614,1.614,0,0,1,47.56,67.894Z" fill="#cec5c5"/>
        <path id="Path_1767" data-name="Path 1767" d="M49.36,69.511l.234-.205a1.754,1.754,0,0,0,.528.6.229.229,0,0,0,.171.043q.063-.02.063-.114a.323.323,0,0,0-.066-.188,1.773,1.773,0,0,0-.262-.264,2.346,2.346,0,0,1-.452-.487.941.941,0,0,1-.143-.52c0-.2.061-.317.181-.355a.573.573,0,0,1,.451.1,1.78,1.78,0,0,1,.355.277,2.194,2.194,0,0,1,.31.383l-.2.227a1.552,1.552,0,0,0-.476-.483.188.188,0,0,0-.156-.034q-.057.022-.057.114a.311.311,0,0,0,.07.186,2.6,2.6,0,0,0,.321.313,1.948,1.948,0,0,1,.391.446.951.951,0,0,1,.139.509c0,.188-.059.305-.179.353a.559.559,0,0,1-.471-.1A2.232,2.232,0,0,1,49.36,69.511Z" fill="#cec5c5"/>
        <path id="Path_1768" data-name="Path 1768" d="M51.1,70.859v-2.1l1.275.736v.417l-.88-.508v.432l.792.457v.4l-.792-.457v.44l.908.524v.412Z" fill="#cec5c5"/>
      </g>
      <g id="Group_326" data-name="Group 326">
        <path id="Path_1769" data-name="Path 1769" d="M35.438,59.773l.427.246.35,1.408.314-1.025.412.238.311,1.386.352-1,.428.247-.618,1.739-.293-.17-.388-1.68-.384,1.235-.293-.17Z" fill="#cfcaca"/>
        <path id="Path_1770" data-name="Path 1770" d="M37.916,63.3l.763-1.656.384.222.763,2.536-.42-.243-.164-.547-.741-.427-.165.357Zm.734-.44.443.256-.221-.736Z" fill="#cfcaca"/>
        <path id="Path_1771" data-name="Path 1771" d="M40.03,64.519v-2.1l.671.387a1.71,1.71,0,0,1,.588.505,1.12,1.12,0,0,1,.176.634q0,.5-.336.455l.448,1.006-.486-.281-.392-.893-.273-.158v.667Zm.4-.845.288.167q.2.117.276.081c.049-.024.074-.091.074-.2a.468.468,0,0,0-.076-.275.839.839,0,0,0-.266-.216l-.295-.17v.617Z" fill="#cfcaca"/>
        <path id="Path_1772" data-name="Path 1772" d="M41.869,65.581v-2.1l1.275.736v.417l-.88-.508v.432l.792.457v.395l-.792-.457v.44l.908.524v.411Z" fill="#cfcaca"/>
        <path id="Path_1773" data-name="Path 1773" d="M43.523,66.536v-2.1l.4.228v.875l.7.406v-.875l.4.228v2.1l-.4-.228v-.825l-.7-.406v.825Z" fill="#cfcaca"/>
        <path id="Path_1774" data-name="Path 1774" d="M45.619,67.456a1.833,1.833,0,0,1-.27-.927.65.65,0,0,1,.27-.617.643.643,0,0,1,.661.072,2.019,2.019,0,0,1,.928,1.616.649.649,0,0,1-.269.617.641.641,0,0,1-.659-.071A1.827,1.827,0,0,1,45.619,67.456Zm.29-1.082a.456.456,0,0,0-.152.392,1.19,1.19,0,0,0,.152.565,1.007,1.007,0,0,0,.373.412.325.325,0,0,0,.372.019.449.449,0,0,0,.152-.39,1.206,1.206,0,0,0-.152-.567,1,1,0,0,0-.372-.414A.323.323,0,0,0,45.909,66.374Z" fill="#cfcaca"/>
        <path id="Path_1775" data-name="Path 1775" d="M47.515,67.916V66.744l.4.228v1.157a1.019,1.019,0,0,0,.1.454.664.664,0,0,0,.265.3c.111.065.2.067.264.007a.458.458,0,0,0,.1-.341V67.39l.4.228V68.79q0,.456-.213.576a.536.536,0,0,1-.544-.07,1.49,1.49,0,0,1-.545-.56A1.6,1.6,0,0,1,47.515,67.916Z" fill="#cfcaca"/>
        <path id="Path_1776" data-name="Path 1776" d="M49.315,69.534l.234-.205a1.745,1.745,0,0,0,.529.6.224.224,0,0,0,.171.043q.063-.02.063-.114a.323.323,0,0,0-.066-.188,1.773,1.773,0,0,0-.262-.264,2.346,2.346,0,0,1-.452-.487.941.941,0,0,1-.143-.52c0-.2.061-.317.181-.355a.573.573,0,0,1,.451.1,1.78,1.78,0,0,1,.355.277,2.149,2.149,0,0,1,.31.383l-.2.227a1.552,1.552,0,0,0-.476-.483.188.188,0,0,0-.156-.034c-.039.015-.057.053-.057.114a.311.311,0,0,0,.07.186,2.6,2.6,0,0,0,.321.313,1.948,1.948,0,0,1,.391.446.951.951,0,0,1,.139.509c0,.188-.059.305-.179.353a.556.556,0,0,1-.47-.1A2.235,2.235,0,0,1,49.315,69.534Z" fill="#cfcaca"/>
        <path id="Path_1777" data-name="Path 1777" d="M51.055,70.882v-2.1l1.275.736v.417l-.88-.508v.432l.792.457v.395l-.792-.457V70.7l.908.524v.411Z" fill="#cfcaca"/>
      </g>
    </g>
    <g id="Group_328" data-name="Group 328">
      <path id="Path_1778" data-name="Path 1778" d="M35.438,59.773l.427.246.35,1.408.314-1.025.412.238.311,1.386.352-1,.428.247-.618,1.739-.293-.17-.388-1.68-.384,1.235-.293-.17Z" fill="#fff"/>
      <path id="Path_1779" data-name="Path 1779" d="M37.916,63.3l.763-1.656.384.222.763,2.536-.42-.243-.164-.547-.741-.427-.165.357Zm.734-.44.443.256-.221-.736Z" fill="#fff"/>
      <path id="Path_1780" data-name="Path 1780" d="M40.03,64.519v-2.1l.671.387a1.71,1.71,0,0,1,.588.505,1.12,1.12,0,0,1,.176.634q0,.5-.336.455l.448,1.006-.486-.281-.392-.893-.273-.158v.667Zm.4-.845.288.167q.2.117.276.081c.049-.024.074-.091.074-.2a.468.468,0,0,0-.076-.275.839.839,0,0,0-.266-.216l-.295-.17v.617Z" fill="#fff"/>
      <path id="Path_1781" data-name="Path 1781" d="M41.869,65.581v-2.1l1.275.736v.417l-.88-.508v.432l.792.457v.395l-.792-.457v.44l.908.524v.411Z" fill="#fff"/>
      <path id="Path_1782" data-name="Path 1782" d="M43.523,66.536v-2.1l.4.228v.875l.7.406v-.875l.4.228v2.1l-.4-.228v-.825l-.7-.406v.825Z" fill="#fff"/>
      <path id="Path_1783" data-name="Path 1783" d="M45.619,67.456a1.833,1.833,0,0,1-.27-.927.65.65,0,0,1,.27-.617.643.643,0,0,1,.661.072,2.019,2.019,0,0,1,.928,1.616.649.649,0,0,1-.269.617.641.641,0,0,1-.659-.071A1.827,1.827,0,0,1,45.619,67.456Zm.29-1.082a.456.456,0,0,0-.152.392,1.19,1.19,0,0,0,.152.565,1.007,1.007,0,0,0,.373.412.325.325,0,0,0,.372.019.449.449,0,0,0,.152-.39,1.206,1.206,0,0,0-.152-.567,1,1,0,0,0-.372-.414A.323.323,0,0,0,45.909,66.374Z" fill="#fff"/>
      <path id="Path_1784" data-name="Path 1784" d="M47.515,67.916V66.744l.4.228v1.157a1.019,1.019,0,0,0,.1.454.664.664,0,0,0,.265.3c.111.065.2.067.264.007a.458.458,0,0,0,.1-.341V67.39l.4.228V68.79q0,.456-.213.576a.536.536,0,0,1-.544-.07,1.49,1.49,0,0,1-.545-.56A1.6,1.6,0,0,1,47.515,67.916Z" fill="#fff"/>
      <path id="Path_1785" data-name="Path 1785" d="M49.315,69.534l.234-.205a1.745,1.745,0,0,0,.529.6.224.224,0,0,0,.171.043q.063-.02.063-.114a.323.323,0,0,0-.066-.188,1.773,1.773,0,0,0-.262-.264,2.346,2.346,0,0,1-.452-.487.941.941,0,0,1-.143-.52c0-.2.061-.317.181-.355a.573.573,0,0,1,.451.1,1.78,1.78,0,0,1,.355.277,2.149,2.149,0,0,1,.31.383l-.2.227a1.552,1.552,0,0,0-.476-.483.188.188,0,0,0-.156-.034c-.039.015-.057.053-.057.114a.311.311,0,0,0,.07.186,2.6,2.6,0,0,0,.321.313,1.948,1.948,0,0,1,.391.446.951.951,0,0,1,.139.509c0,.188-.059.305-.179.353a.556.556,0,0,1-.47-.1A2.235,2.235,0,0,1,49.315,69.534Z" fill="#fff"/>
      <path id="Path_1786" data-name="Path 1786" d="M51.055,70.882v-2.1l1.275.736v.417l-.88-.508v.432l.792.457v.395l-.792-.457V70.7l.908.524v.411Z" fill="#fff"/>
    </g>
    <path id="Path_1787" data-name="Path 1787" d="M41.423,72.43V85.819l1.53.91.058-13.382Z" fill="#6485ac"/>
    <path id="Path_1788" data-name="Path 1788" d="M85.439,35.339,43.806,59.376l21.807,21.24,41.633-24.037Z" fill="#e64958"/>
    <g id="Group_341" data-name="Group 341">
      <g id="Group_329" data-name="Group 329">
        <rect id="Rectangle_38" data-name="Rectangle 38" width="0.398" height="30.441" transform="matrix(0.698, -0.716, 0.716, 0.698, 45.664, 58.344)" fill="#bf3737"/>
      </g>
      <g id="Group_330" data-name="Group 330">
        <rect id="Rectangle_39" data-name="Rectangle 39" width="0.398" height="30.441" transform="matrix(0.698, -0.716, 0.716, 0.698, 49.083, 56.359)" fill="#bf3737"/>
      </g>
      <g id="Group_331" data-name="Group 331">
        <rect id="Rectangle_40" data-name="Rectangle 40" width="0.399" height="30.441" transform="matrix(0.698, -0.716, 0.716, 0.698, 52.501, 54.374)" fill="#bf3737"/>
      </g>
      <g id="Group_332" data-name="Group 332">
        <rect id="Rectangle_41" data-name="Rectangle 41" width="0.398" height="30.441" transform="matrix(0.698, -0.716, 0.716, 0.698, 55.92, 52.389)" fill="#bf3737"/>
      </g>
      <g id="Group_333" data-name="Group 333">
        <rect id="Rectangle_42" data-name="Rectangle 42" width="0.399" height="30.441" transform="matrix(0.698, -0.716, 0.716, 0.698, 59.339, 50.403)" fill="#bf3737"/>
      </g>
      <g id="Group_334" data-name="Group 334">
        <rect id="Rectangle_43" data-name="Rectangle 43" width="0.399" height="30.441" transform="matrix(0.698, -0.716, 0.716, 0.698, 62.756, 48.418)" fill="#bf3737"/>
      </g>
      <g id="Group_335" data-name="Group 335">
        <rect id="Rectangle_44" data-name="Rectangle 44" width="0.398" height="30.441" transform="matrix(0.698, -0.716, 0.716, 0.698, 66.175, 46.433)" fill="#bf3737"/>
      </g>
      <g id="Group_336" data-name="Group 336">
        <rect id="Rectangle_45" data-name="Rectangle 45" width="0.399" height="30.441" transform="matrix(0.698, -0.716, 0.716, 0.698, 69.594, 44.447)" fill="#bf3737"/>
      </g>
      <g id="Group_337" data-name="Group 337">
        <rect id="Rectangle_46" data-name="Rectangle 46" width="0.399" height="30.441" transform="matrix(0.698, -0.716, 0.716, 0.698, 73.012, 42.463)" fill="#bf3737"/>
      </g>
      <g id="Group_338" data-name="Group 338">
        <rect id="Rectangle_47" data-name="Rectangle 47" width="0.398" height="30.441" transform="matrix(0.698, -0.716, 0.716, 0.698, 76.431, 40.477)" fill="#bf3737"/>
      </g>
      <g id="Group_339" data-name="Group 339">
        <rect id="Rectangle_48" data-name="Rectangle 48" width="0.398" height="30.441" transform="matrix(0.698, -0.716, 0.716, 0.698, 79.85, 38.492)" fill="#bf3737"/>
      </g>
      <g id="Group_340" data-name="Group 340">
        <rect id="Rectangle_49" data-name="Rectangle 49" width="0.399" height="30.441" transform="matrix(0.698, -0.716, 0.716, 0.698, 83.269, 36.507)" fill="#bf3737"/>
      </g>
    </g>
    <path id="Path_1789" data-name="Path 1789" d="M85.439,35.339,43.806,59.376l-21.244-3.6L64.195,31.736Z" fill="#fe8b95"/>
    <g id="Group_354" data-name="Group 354">
      <g id="Group_342" data-name="Group 342">
        <rect id="Rectangle_50" data-name="Rectangle 50" width="0.399" height="21.572" transform="matrix(0.168, -0.986, 0.986, 0.168, 24.503, 54.78)" fill="#e06969"/>
      </g>
      <g id="Group_343" data-name="Group 343">
        <rect id="Rectangle_51" data-name="Rectangle 51" width="0.399" height="21.572" transform="matrix(0.168, -0.986, 0.986, 0.168, 27.922, 52.795)" fill="#e06969"/>
      </g>
      <g id="Group_344" data-name="Group 344">
        <rect id="Rectangle_52" data-name="Rectangle 52" width="0.399" height="21.572" transform="matrix(0.168, -0.986, 0.986, 0.168, 31.341, 50.809)" fill="#e06969"/>
      </g>
      <g id="Group_345" data-name="Group 345">
        <rect id="Rectangle_53" data-name="Rectangle 53" width="0.399" height="21.572" transform="matrix(0.168, -0.986, 0.986, 0.168, 34.76, 48.825)" fill="#e06969"/>
      </g>
      <g id="Group_346" data-name="Group 346">
        <rect id="Rectangle_54" data-name="Rectangle 54" width="0.399" height="21.572" transform="matrix(0.168, -0.986, 0.986, 0.168, 38.179, 46.839)" fill="#e06969"/>
      </g>
      <g id="Group_347" data-name="Group 347">
        <rect id="Rectangle_55" data-name="Rectangle 55" width="0.399" height="21.572" transform="matrix(0.168, -0.986, 0.986, 0.168, 41.597, 44.854)" fill="#e06969"/>
      </g>
      <g id="Group_348" data-name="Group 348">
        <rect id="Rectangle_56" data-name="Rectangle 56" width="0.399" height="21.572" transform="matrix(0.168, -0.986, 0.986, 0.168, 45.016, 42.87)" fill="#e06969"/>
      </g>
      <g id="Group_349" data-name="Group 349">
        <rect id="Rectangle_57" data-name="Rectangle 57" width="0.399" height="21.572" transform="matrix(0.168, -0.986, 0.986, 0.168, 48.434, 40.884)" fill="#e06969"/>
      </g>
      <g id="Group_350" data-name="Group 350">
        <rect id="Rectangle_58" data-name="Rectangle 58" width="0.399" height="21.572" transform="matrix(0.168, -0.986, 0.986, 0.168, 51.853, 38.899)" fill="#e06969"/>
      </g>
      <g id="Group_351" data-name="Group 351">
        <rect id="Rectangle_59" data-name="Rectangle 59" width="0.399" height="21.572" transform="matrix(0.168, -0.986, 0.986, 0.168, 55.273, 36.913)" fill="#e06969"/>
      </g>
      <g id="Group_352" data-name="Group 352">
        <rect id="Rectangle_60" data-name="Rectangle 60" width="0.399" height="21.572" transform="matrix(0.168, -0.986, 0.986, 0.168, 58.691, 34.929)" fill="#e06969"/>
      </g>
      <g id="Group_353" data-name="Group 353">
        <rect id="Rectangle_61" data-name="Rectangle 61" width="0.399" height="21.572" transform="matrix(0.168, -0.986, 0.986, 0.168, 62.11, 32.943)" fill="#e06969"/>
      </g>
    </g>
    <g id="Group_356" data-name="Group 356">
      <path id="Path_1790" data-name="Path 1790" d="M92,54.58,74.084,64.928l-7.812,4.51-8.3-8.8L83.715,45.776Z" fill="#c2c2c2"/>
      <path id="Path_1791" data-name="Path 1791" d="M91.206,54.465l-4.033,2.33-4.46,2.571-5.628,3.252-4.459,2.571-6.264,3.618-7.634-8.1L83.454,46.232Z" fill="url(#linear-gradient-4)"/>
      <path id="Path_1792" data-name="Path 1792" d="M57.973,60.637l25.74-14.861.683.725L58.657,61.362Z" fill="#c2c2c2"/>
      <path id="Path_1793" data-name="Path 1793" d="M74.084,64.928l-8.294-8.8,1.143-.662,8.288,8.8Z" fill="#c2c2c2"/>
      <path id="Path_1794" data-name="Path 1794" d="M84.081,59.172l-8.294-8.8,1.143-.661,8.288,8.794Z" fill="#c2c2c2"/>
      <g id="Group_355" data-name="Group 355">
        <path id="Path_1795" data-name="Path 1795" d="M61.381,63.991l-.4-.69C64.143,61.478,82.941,50.625,86.1,48.8l.4.69C83.34,51.315,64.541,62.168,61.381,63.991Z" fill="#c2c2c2"/>
      </g>
    </g>
    <path id="Path_1796" data-name="Path 1796" d="M71,38.081,53.091,48.419l-7.832,4.52-9.33-2.125,7.977-4.61L61.65,35.947Z" fill="#e0e0e0"/>
    <path id="Path_1797" data-name="Path 1797" d="M71.432,38.683,67.7,40.837l-5.352,3.087-4.876,2.811-5.347,3.087L46.968,52.8l-.932-.211-4.119-.937-4.63-1.047,3.928-2.27,3.508-2.029,5.943-3.433,5.357-3.1,4.861-2.811.846-.491,5.312,1.208Z" fill="url(#linear-gradient-5)"/>
    <path id="Path_1798" data-name="Path 1798" d="M71,38.081l1.373.331L46.652,53.26l-1.393-.321Z" fill="#e0e0e0"/>
    <path id="Path_1799" data-name="Path 1799" d="M55.612,48.088l-1.142.662h-.005l-1.374-.331L43.906,46.2l1.148-.661,9.175,2.21.01.005,1.368.325Z" fill="#e0e0e0"/>
    <path id="Path_1800" data-name="Path 1800" d="M65.609,42.332l-1.143.661h0l-1.373-.33L53.9,40.448l1.148-.662L64.226,42l.01.005,1.368.326Z" fill="#e0e0e0"/>
    <g id="Group_357" data-name="Group 357">
      <path id="Path_1801" data-name="Path 1801" d="M43.539,52.634l-.4-.69c3.16-1.823,21.958-12.676,25.117-14.5l.4.69C65.5,39.958,46.7,50.811,43.539,52.634Z" fill="#e0e0e0"/>
    </g>
    <path id="Path_1802" data-name="Path 1802" d="M41.423,82.795v3.049l1.559.885V83.68Z" fill="#d3c9ca"/>
    <path id="Path_1803" data-name="Path 1803" d="M44.513,82.795v3.049l-1.56.885V83.68Z" fill="#998385"/>
    <path id="Path_1804" data-name="Path 1804" d="M56.155,80.33v.607l2.573-1.379v-.607Z" fill="#3b4345"/>
    <path id="Path_1805" data-name="Path 1805" d="M66.06,81.838l-.481-.273v1.906l.481.272Z" fill="#3b4345"/>
  </g>
</svg>
