<?xml version="1.0" encoding="UTF-8"?>
<svg viewBox="0 0 185 110" xmlns="http://www.w3.org/2000/svg">
  <path fill="#170202" d="m 80,7 h 18 c 0.666667,14 -3.333333,25.666667 -12,35 l -2,2 C 65.20064,61.090327 11.590817,54.394149 16.629752,52.950679 55.82303,41.723246 30.51229,50.181723 52,35 58.666667,28.333333 64.333333,21.333333 69,14 72.333333,8.6666667 74.67932,6.9873842 80,7" id="path1"/>
  <path fill="#8d0202" d="M 48.913325,57.324062 C 63.913325,57.324062 75,59 87,70 c 7,7 11,21 11,32 v 3.99612 c -4.43406,0.17769 -8.502752,0.0823 -12.419529,-0.21498 C 79.921309,105.35161 74.727818,103.7579 70,101 57.331687,83.264358 71.30572,102.98657 53,77 v 3 l -1,3 v 4 l -3,6 C 43,93.666667 37.666667,92.333333 33,89 25,85 16.666667,82.666667 8,82 H 4 C 3,68 3,68 6,64 15.333333,58 24.919578,56.747089 40.877749,57.217335" id="path2"/>
  <path fill="#7d0102" d="m 53,76 c 0.251921,3.817525 0.459341,7.026659 0.374381,10.216549 C 53.26516,90.317384 52.730661,91.281192 49,93 43,93.666667 37.666667,92.333333 33,89 25,85 16.666667,82.666667 8,82 H 4 C 3,68 3,68 6,64 c 2.6666667,-2.666667 7,-4.666667 13,-6 11.333333,-1.333333 18,-1 20,1 5,3 9.219943,6.74221 14,17" id="path3"/>
  <path fill="#a50101" d="m 53.849703,29 c 0.637187,2.439047 0.598184,2.247422 0.808169,3.117339 0.0096,0.03973 0.0045,0.07205 -0.0039,0.101335 -0.0094,0.03278 -0.02294,0.06175 -0.02471,0.09302 -0.01524,0.270249 -0.830386,0.688916 -4.233025,4.682072 C 44.16351,43.848841 37.542439,50.325858 29.053758,54.005492 20.387091,55.338825 12.906425,54.325571 6,47 2.8291904,42.104984 3.9758983,35.500844 3.9937678,30 H 8 c 9.520524,-1.503241 18.074135,-4.804754 26.74258,-8.723039 2.864566,-1.294832 6.090269,-4.340111 8.905239,-5.830389 2.922305,-2.033643 4.016742,-1.257244 5.670708,-0.384842 2.880489,1.131974 2.348292,4.704638 4.531176,13.93827 z" id="path4"/>
  <path fill="#760b0c" d="M153 38h9v26c10 0 2 2 4 0l7-10h7l-1 2-2 3-2 3-4 7 11 16h-9l-8-14h-3v14h-9Z" id="path5"/>
  <path fill="#040404" d="m 96,38 h 7 v 15 l 3,-0.04408 L 116,38 h 7 l -10,17 1,2 11,18 h -9 l -9,-16 h -4 v 16 h -7 z" id="path6"/>
  <path fill="#0e0e0e" d="M131 38h8v31h11v6h-19z" id="path7"/>
  <text x="100" y="97" font-family="Calibri" font-size="11" id="text9">VENTURES (P) LTD</text>
</svg>